M48
; DRILL file {KiCad 7.0.2} date Wed Jun 21 14:39:46 2023
; FORMAT={-:-/ absolute / metric / decimal}
; #@! TF.CreationDate,2023-06-21T14:39:46-07:00
; #@! TF.GenerationSoftware,Kicad,Pcbnew,7.0.2
; #@! TF.FileFunction,Plated,1,4,PTH
FMAT,2
METRIC
; #@! TA.AperFunction,Plated,PTH,ViaDrill
T1C0.400
; #@! TA.AperFunction,Plated,PTH,ComponentDrill
T2C0.550
; #@! TA.AperFunction,Plated,PTH,ComponentDrill
T3C0.750
; #@! TA.AperFunction,Plated,PTH,ComponentDrill
T4C0.800
; #@! TA.AperFunction,Plated,PTH,ComponentDrill
T5C0.850
; #@! TA.AperFunction,Plated,PTH,ComponentDrill
T6C0.990
; #@! TA.AperFunction,Plated,PTH,ComponentDrill
T7C1.000
; #@! TA.AperFunction,Plated,PTH,ComponentDrill
T8C1.200
; #@! TA.AperFunction,Plated,PTH,ComponentDrill
T9C1.300
; #@! TA.AperFunction,Plated,PTH,ComponentDrill
T10C3.200
%
G90
G05
T1
X85.852Y-112.776
X86.106Y-121.158
X86.106Y-127.762
X86.106Y-131.826
X90.918Y-91.614
X92.456Y-122.428
X92.456Y-127.762
X92.456Y-132.842
X93.966Y-117.268
X94.584Y-101.504
X94.742Y-90.852
X94.742Y-93.392
X94.996Y-75.184
X95.116Y-77.123
X95.31Y-69.528
X95.49Y-105.584
X95.758Y-56.134
X95.758Y-74.168
X96.279Y-68.721
X96.386Y-78.972
X96.506Y-117.014
X97.409Y-120.269
X97.522Y-117.228
X98.284Y-66.468
X98.538Y-108.759
X98.538Y-117.268
X98.552Y-109.728
X98.797Y-120.269
X98.806Y-132.842
X99.314Y-90.932
X99.314Y-93.472
X99.709Y-117.014
X99.891Y-65.96
X100.564Y-120.924
X100.57Y-66.976
X101.6Y-117.221
X102.024Y-71.86
X102.108Y-56.134
X102.616Y-101.6
X102.616Y-104.14
X102.856Y-100.25
X102.87Y-107.95
X103.124Y-67.564
X103.632Y-112.268
X104.394Y-71.72
X104.902Y-107.696
X104.902Y-113.792
X104.902Y-114.808
X105.156Y-118.872
X105.156Y-120.904
X105.156Y-132.842
X105.396Y-71.802
X105.918Y-83.86
X106.045Y-110.871
X106.8Y-109.648
X106.92Y-75.612
X107.696Y-111.506
X107.936Y-114.22
X108.204Y-92.456
X108.331Y-105.537
X108.458Y-56.134
X108.712Y-131.572
X108.839Y-87.122
X109.22Y-118.752
X109.601Y-85.471
X109.608Y-127.051
X109.626Y-129.032
X110.084Y-132.334
X110.236Y-89.154
X110.376Y-94.154
X111.76Y-124.841
X112.254Y-110.156
X112.762Y-125.396
X113.284Y-70.358
X113.843Y-129.839
X114.554Y-132.283
X114.808Y-56.134
X115.214Y-128.168
X115.57Y-124.968
X115.824Y-86.868
X116.078Y-83.82
X116.572Y-68.754
X116.586Y-124.968
X117.221Y-78.74
X117.602Y-97.79
X117.782Y-123.978
X117.834Y-123.027
X118.404Y-80.411
X118.745Y-122.174
X118.858Y-72.818
X121.158Y-56.134
X121.158Y-121.666
X121.615Y-127.051
X123.925Y-74.101
X125.73Y-98.044
X127.254Y-107.696
X127.508Y-56.134
X127.899Y-109.348
X129.867Y-101.6
X130.283Y-82.74
X130.759Y-123.292
X131.064Y-84.328
X131.064Y-100.33
X131.699Y-76.073
X131.826Y-78.613
X133.858Y-56.134
X135.128Y-123.444
X137.908Y-73.072
X139.15Y-71.015
X140.208Y-56.134
X141.21Y-74.349
X141.21Y-87.296
X141.241Y-71.884
X142.226Y-114.402
X142.85Y-117.602
X143.077Y-68.11
X146.558Y-56.134
X149.148Y-67.885
X151.511Y-67.437
X151.892Y-68.326
X152.52Y-86.868
X152.908Y-56.134
X153.148Y-68.754
X153.148Y-69.77
X154.164Y-68.754
X154.164Y-69.77
X154.813Y-85.471
X154.94Y-83.058
X155.699Y-96.389
X155.942Y-92.376
X156.041Y-91.391
X156.472Y-90.542
X156.718Y-75.184
X156.718Y-102.108
X157.378Y-122.174
X158.174Y-68.542
X158.242Y-94.862
X158.242Y-123.698
X158.395Y-75.184
X158.482Y-89.836
X158.63Y-72.31
X158.75Y-95.758
X158.803Y-67.627
X158.879Y-91.868
X158.883Y-87.684
X159.004Y-69.008
X159.004Y-103.327
X159.258Y-81.28
X159.258Y-90.805
X159.385Y-96.901
X159.498Y-66.976
X159.575Y-85.915
X159.752Y-95.932
X159.752Y-97.964
X159.752Y-99.996
X159.752Y-102.028
X159.766Y-132.588
X160.161Y-122.094
X160.528Y-113.538
X160.782Y-132.588
X161.036Y-82.55
X161.544Y-61.976
X161.544Y-81.788
X162.052Y-81.026
X162.052Y-132.588
X162.306Y-74.676
X163.308Y-74.342
X163.576Y-121.158
X163.678Y-132.639
X163.932Y-129.083
X164.07Y-85.772
X164.324Y-74.088
X164.324Y-93.9
X164.324Y-122.094
X164.338Y-127.0
X164.578Y-125.904
X164.652Y-102.381
X164.795Y-133.198
X165.34Y-93.392
X165.649Y-102.067
X165.735Y-125.476
X165.848Y-74.088
X165.862Y-115.316
X165.862Y-117.348
X166.319Y-132.639
X166.64Y-70.258
X167.118Y-81.2
X167.118Y-122.094
X167.386Y-65.278
X167.488Y-132.537
X167.513Y-111.633
X167.626Y-70.278
X168.134Y-79.466
X168.295Y-106.426
X168.642Y-91.868
X168.896Y-124.888
X168.896Y-126.92
X168.896Y-128.952
X168.896Y-130.984
X169.404Y-73.834
X169.404Y-89.836
X169.538Y-88.82
X169.672Y-61.976
X169.672Y-63.476
X169.672Y-65.226
X169.672Y-66.726
X169.672Y-68.226
X169.774Y-121.463
X169.912Y-86.788
X171.069Y-77.978
X171.172Y-61.976
X171.172Y-68.226
X171.399Y-132.69
X171.436Y-73.834
X171.45Y-56.134
X171.45Y-80.772
X171.653Y-123.038
X172.452Y-85.264
X172.466Y-115.189
X172.466Y-117.348
X172.672Y-61.976
X172.672Y-68.226
X173.468Y-124.888
X173.552Y-71.558
X175.619Y-71.628
X177.694Y-68.94
X177.694Y-71.522
X177.8Y-56.134
X178.562Y-113.03
X179.07Y-132.842
X179.324Y-62.738
X180.235Y-68.729
X182.372Y-63.754
X182.372Y-68.834
X182.612Y-76.882
X182.626Y-82.042
X183.388Y-132.08
X183.453Y-67.435
X183.642Y-65.149
X183.896Y-61.976
X183.896Y-73.66
X183.896Y-79.502
X183.896Y-101.854
X183.896Y-112.776
X183.896Y-121.158
T3
X127.254Y-129.988
X128.524Y-128.728
X128.524Y-131.268
X132.08Y-129.958
X133.35Y-128.698
X133.35Y-131.238
X136.906Y-129.958
X138.176Y-128.698
X138.176Y-131.238
X141.674Y-129.958
X142.944Y-128.698
X142.944Y-131.238
T4
X93.204Y-73.072
X93.204Y-75.612
X93.204Y-78.152
X93.204Y-80.692
X93.204Y-83.232
X93.204Y-85.772
X93.204Y-88.312
X93.204Y-90.852
X93.204Y-93.392
X93.204Y-95.932
X93.204Y-98.472
X93.204Y-101.012
X93.204Y-103.552
X93.204Y-106.092
X98.558Y-69.77
X100.824Y-73.072
X100.824Y-75.612
X100.824Y-78.152
X100.824Y-80.692
X100.824Y-83.232
X100.824Y-85.772
X100.824Y-88.312
X100.824Y-90.852
X100.824Y-93.392
X100.824Y-95.932
X100.824Y-98.472
X100.824Y-101.012
X100.824Y-103.552
X100.824Y-106.092
X101.058Y-69.77
X103.999Y-73.072
X103.999Y-75.612
X103.999Y-78.152
X103.999Y-80.692
X103.999Y-83.232
X103.999Y-85.772
X103.999Y-88.312
X103.999Y-90.852
X103.999Y-93.392
X103.999Y-95.932
X103.999Y-98.472
X103.999Y-101.012
X103.999Y-103.552
X103.999Y-106.092
X109.226Y-69.77
X111.619Y-73.072
X111.619Y-75.612
X111.619Y-78.152
X111.619Y-80.692
X111.619Y-83.232
X111.619Y-85.772
X111.619Y-88.312
X111.619Y-90.852
X111.619Y-93.392
X111.619Y-95.932
X111.619Y-98.472
X111.619Y-101.012
X111.619Y-103.552
X111.619Y-106.092
X111.726Y-69.77
X114.794Y-73.072
X114.794Y-75.612
X114.794Y-78.152
X114.794Y-80.692
X114.794Y-83.232
X114.794Y-85.772
X114.794Y-88.312
X114.794Y-90.852
X114.794Y-99.488
X114.794Y-102.028
X114.794Y-104.568
X114.794Y-107.108
X114.794Y-109.648
X114.794Y-112.188
X114.794Y-114.728
X114.794Y-117.268
X114.794Y-119.808
X114.794Y-122.348
X119.914Y-69.77
X119.914Y-96.186
X122.414Y-69.77
X122.414Y-73.072
X122.414Y-75.612
X122.414Y-78.152
X122.414Y-80.692
X122.414Y-83.232
X122.414Y-85.772
X122.414Y-88.312
X122.414Y-90.852
X122.414Y-96.186
X122.414Y-99.488
X122.414Y-102.028
X122.414Y-104.568
X122.414Y-107.108
X122.414Y-109.648
X122.414Y-112.188
X122.414Y-114.728
X122.414Y-117.268
X122.414Y-119.808
X122.414Y-122.348
X125.589Y-73.072
X125.589Y-75.612
X125.589Y-78.152
X125.589Y-80.692
X125.589Y-83.232
X125.589Y-85.772
X125.589Y-88.312
X125.589Y-90.852
X125.589Y-99.488
X125.589Y-102.028
X125.589Y-104.568
X125.589Y-107.108
X125.589Y-109.648
X125.589Y-112.188
X125.589Y-114.728
X125.589Y-117.268
X125.589Y-119.808
X125.589Y-122.348
X130.836Y-69.77
X130.836Y-96.186
X133.209Y-73.072
X133.209Y-75.612
X133.209Y-78.152
X133.209Y-80.692
X133.209Y-83.232
X133.209Y-85.772
X133.209Y-88.312
X133.209Y-90.852
X133.209Y-99.488
X133.209Y-102.028
X133.209Y-104.568
X133.209Y-107.108
X133.209Y-109.648
X133.209Y-112.188
X133.209Y-114.728
X133.209Y-117.268
X133.209Y-119.808
X133.209Y-122.348
X133.336Y-69.77
X133.336Y-96.186
X136.384Y-73.072
X136.384Y-75.612
X136.384Y-78.152
X136.384Y-80.692
X136.384Y-83.232
X136.384Y-85.772
X136.384Y-88.312
X136.384Y-90.852
X136.511Y-99.488
X136.511Y-102.028
X136.511Y-104.568
X136.511Y-107.108
X136.511Y-109.648
X136.511Y-112.188
X136.511Y-114.728
X136.511Y-117.268
X136.511Y-119.808
X139.813Y-99.488
X139.813Y-102.028
X139.813Y-104.568
X139.813Y-107.108
X139.813Y-109.648
X139.813Y-112.188
X139.813Y-114.728
X139.813Y-117.268
X139.813Y-119.808
X139.813Y-122.348
X141.504Y-69.77
X144.004Y-69.77
X144.004Y-73.072
X144.004Y-75.612
X144.004Y-78.152
X144.004Y-80.692
X144.004Y-83.232
X144.004Y-85.772
X144.004Y-88.312
X144.004Y-90.852
X145.06Y-96.186
X147.433Y-99.488
X147.433Y-102.028
X147.433Y-104.568
X147.433Y-107.108
X147.433Y-109.648
X147.433Y-112.188
X147.433Y-114.728
X147.433Y-117.268
X147.433Y-119.808
X147.433Y-122.348
X147.56Y-96.186
X150.735Y-99.488
X150.735Y-102.028
X150.735Y-104.568
X150.735Y-107.108
X150.735Y-109.648
X150.735Y-112.188
X150.735Y-114.728
X150.735Y-117.268
X150.735Y-119.808
X153.91Y-79.168
X153.91Y-81.708
X153.91Y-84.248
X153.91Y-86.788
X153.91Y-89.328
X153.91Y-91.868
X153.91Y-94.408
X153.91Y-96.948
X153.91Y-99.488
X153.91Y-102.028
X153.91Y-104.568
X153.91Y-107.108
X153.91Y-109.648
X153.91Y-112.188
X153.91Y-114.728
X153.91Y-117.268
X153.91Y-119.808
X153.91Y-122.348
X153.91Y-124.888
X153.91Y-127.428
X153.91Y-129.968
X153.91Y-132.508
X176.77Y-86.788
X176.77Y-89.328
X176.77Y-91.868
X176.77Y-94.408
X176.77Y-96.948
X176.77Y-99.488
X176.77Y-102.028
X176.77Y-104.568
X176.77Y-107.108
X176.77Y-109.648
X176.77Y-112.188
X176.77Y-114.728
X176.77Y-117.268
X176.77Y-119.808
X176.77Y-122.348
X176.77Y-124.888
X176.77Y-127.428
X176.77Y-129.968
X176.77Y-132.508
X176.774Y-79.171
X176.774Y-81.711
X176.774Y-84.251
T6
X182.681Y-124.137
X182.681Y-128.637
X182.681Y-105.412
X182.681Y-109.912
T7
X86.854Y-62.912
X86.854Y-65.452
X86.854Y-67.992
X86.854Y-70.532
X86.854Y-73.072
X86.854Y-75.612
X86.854Y-78.152
X86.854Y-80.692
X86.854Y-83.232
X86.854Y-85.772
X86.854Y-88.312
X86.854Y-90.852
X86.854Y-93.392
X86.854Y-95.932
X86.854Y-98.472
X86.854Y-101.012
X86.854Y-103.552
X86.854Y-106.092
X86.854Y-108.632
X86.854Y-111.172
X89.394Y-62.912
X89.394Y-65.452
X89.394Y-67.992
X89.394Y-70.532
X89.394Y-73.072
X89.394Y-75.612
X89.394Y-78.152
X89.394Y-80.692
X89.394Y-83.232
X89.394Y-85.772
X89.394Y-88.312
X89.394Y-90.852
X89.394Y-93.392
X89.394Y-95.932
X89.394Y-98.472
X89.394Y-101.012
X89.394Y-103.552
X89.394Y-106.092
X89.394Y-108.632
X89.394Y-111.172
X93.204Y-69.596
X94.107Y-113.284
X102.166Y-65.024
X103.551Y-62.184
X104.936Y-65.024
X106.321Y-62.184
X107.706Y-65.024
X109.091Y-62.184
X110.476Y-65.024
X111.861Y-62.184
X113.246Y-65.024
X134.487Y-65.024
X135.873Y-62.184
X137.257Y-65.024
X138.642Y-62.184
X140.028Y-65.024
X141.412Y-62.184
X142.797Y-65.024
X144.183Y-62.184
X145.567Y-65.024
X146.812Y-128.693
X146.812Y-131.233
X147.555Y-83.247
X147.555Y-85.787
X147.555Y-88.327
X147.56Y-73.072
X147.56Y-75.612
X147.56Y-78.152
X148.576Y-92.122
X150.095Y-83.247
X150.095Y-85.787
X150.095Y-88.327
X150.1Y-73.072
X150.1Y-75.612
X150.1Y-78.152
X150.622Y-129.794
X180.575Y-87.809
X180.575Y-90.349
X180.575Y-92.889
X180.575Y-95.429
X180.575Y-97.969
X183.115Y-87.809
X183.115Y-90.349
X183.115Y-92.889
X183.115Y-95.429
X183.115Y-97.969
T8
X117.654Y-127.718
X117.654Y-132.218
X124.154Y-127.718
X124.154Y-132.218
X181.596Y-71.294
X181.596Y-83.994
T9
X180.191Y-122.887
X180.191Y-129.897
X180.191Y-104.162
X180.191Y-111.172
T10
X95.206Y-63.604
X120.206Y-63.604
X127.527Y-63.604
X152.528Y-63.604
T2
X159.179Y-57.114G85X159.179Y-56.464
G05
X166.929Y-57.114G85X166.929Y-56.464
G05
T5
X159.329Y-60.864G85X159.329Y-60.314
G05
X166.779Y-60.864G85X166.779Y-60.314
G05
T0
M30
