G04 #@! TF.GenerationSoftware,KiCad,Pcbnew,7.0.2*
G04 #@! TF.CreationDate,2023-06-21T14:39:40-07:00*
G04 #@! TF.ProjectId,ESP32_Interface,45535033-325f-4496-9e74-657266616365,1*
G04 #@! TF.SameCoordinates,Original*
G04 #@! TF.FileFunction,Soldermask,Bot*
G04 #@! TF.FilePolarity,Negative*
%FSLAX46Y46*%
G04 Gerber Fmt 4.6, Leading zero omitted, Abs format (unit mm)*
G04 Created by KiCad (PCBNEW 7.0.2) date 2023-06-21 14:39:40*
%MOMM*%
%LPD*%
G01*
G04 APERTURE LIST*
G04 Aperture macros list*
%AMRoundRect*
0 Rectangle with rounded corners*
0 $1 Rounding radius*
0 $2 $3 $4 $5 $6 $7 $8 $9 X,Y pos of 4 corners*
0 Add a 4 corners polygon primitive as box body*
4,1,4,$2,$3,$4,$5,$6,$7,$8,$9,$2,$3,0*
0 Add four circle primitives for the rounded corners*
1,1,$1+$1,$2,$3*
1,1,$1+$1,$4,$5*
1,1,$1+$1,$6,$7*
1,1,$1+$1,$8,$9*
0 Add four rect primitives between the rounded corners*
20,1,$1+$1,$2,$3,$4,$5,0*
20,1,$1+$1,$4,$5,$6,$7,0*
20,1,$1+$1,$6,$7,$8,$9,0*
20,1,$1+$1,$8,$9,$2,$3,0*%
G04 Aperture macros list end*
%ADD10C,2.700000*%
%ADD11C,4.102000*%
%ADD12RoundRect,0.051000X0.800000X0.800000X-0.800000X0.800000X-0.800000X-0.800000X0.800000X-0.800000X0*%
%ADD13C,1.702000*%
%ADD14RoundRect,0.051000X0.650000X-0.650000X0.650000X0.650000X-0.650000X0.650000X-0.650000X-0.650000X0*%
%ADD15C,1.402000*%
%ADD16RoundRect,0.051000X-0.850000X-0.850000X0.850000X-0.850000X0.850000X0.850000X-0.850000X0.850000X0*%
%ADD17C,1.852000*%
%ADD18C,2.202000*%
%ADD19RoundRect,0.051000X-0.800000X-0.800000X0.800000X-0.800000X0.800000X0.800000X-0.800000X0.800000X0*%
%ADD20O,1.702000X1.702000*%
%ADD21RoundRect,0.051000X-1.200000X1.200000X-1.200000X-1.200000X1.200000X-1.200000X1.200000X1.200000X0*%
%ADD22O,2.502000X2.502000*%
%ADD23RoundRect,0.051000X-0.800000X0.800000X-0.800000X-0.800000X0.800000X-0.800000X0.800000X0.800000X0*%
%ADD24C,0.950000*%
%ADD25O,0.800000X0.800000*%
%ADD26O,1.252000X1.902000*%
%ADD27O,1.552000X2.102000*%
%ADD28RoundRect,0.051000X-1.100000X-1.100000X1.100000X-1.100000X1.100000X1.100000X-1.100000X1.100000X0*%
%ADD29C,2.302000*%
%ADD30O,1.802000X1.802000*%
%ADD31RoundRect,0.051000X0.800000X-0.800000X0.800000X0.800000X-0.800000X0.800000X-0.800000X-0.800000X0*%
%ADD32RoundRect,0.051000X0.850000X0.850000X-0.850000X0.850000X-0.850000X-0.850000X0.850000X-0.850000X0*%
%ADD33RoundRect,0.301000X0.337500X0.475000X-0.337500X0.475000X-0.337500X-0.475000X0.337500X-0.475000X0*%
%ADD34RoundRect,0.301000X0.350000X0.450000X-0.350000X0.450000X-0.350000X-0.450000X0.350000X-0.450000X0*%
%ADD35RoundRect,0.301000X0.450000X-0.350000X0.450000X0.350000X-0.450000X0.350000X-0.450000X-0.350000X0*%
%ADD36RoundRect,0.301000X-0.450000X0.350000X-0.450000X-0.350000X0.450000X-0.350000X0.450000X0.350000X0*%
%ADD37RoundRect,0.301000X-0.337500X-0.475000X0.337500X-0.475000X0.337500X0.475000X-0.337500X0.475000X0*%
%ADD38RoundRect,0.051000X0.325000X-0.780000X0.325000X0.780000X-0.325000X0.780000X-0.325000X-0.780000X0*%
%ADD39RoundRect,0.301000X-0.475000X0.337500X-0.475000X-0.337500X0.475000X-0.337500X0.475000X0.337500X0*%
%ADD40RoundRect,0.301000X-0.350000X-0.450000X0.350000X-0.450000X0.350000X0.450000X-0.350000X0.450000X0*%
%ADD41RoundRect,0.051000X0.225000X-0.875000X0.225000X0.875000X-0.225000X0.875000X-0.225000X-0.875000X0*%
%ADD42RoundRect,0.301000X0.475000X-0.337500X0.475000X0.337500X-0.475000X0.337500X-0.475000X-0.337500X0*%
%ADD43RoundRect,0.051000X0.780000X0.325000X-0.780000X0.325000X-0.780000X-0.325000X0.780000X-0.325000X0*%
%ADD44RoundRect,0.051000X-0.780000X-0.325000X0.780000X-0.325000X0.780000X0.325000X-0.780000X0.325000X0*%
%ADD45RoundRect,0.051000X1.000000X0.750000X-1.000000X0.750000X-1.000000X-0.750000X1.000000X-0.750000X0*%
%ADD46RoundRect,0.051000X1.000000X1.900000X-1.000000X1.900000X-1.000000X-1.900000X1.000000X-1.900000X0*%
G04 APERTURE END LIST*
D10*
X88000000Y-58000000D03*
X182000000Y-58000000D03*
X88000000Y-117000000D03*
X182000000Y-117000000D03*
X163000000Y-107190000D03*
D11*
X120206000Y-63604000D03*
X95206000Y-63604000D03*
D12*
X113246000Y-65024000D03*
D13*
X110476000Y-65024000D03*
X107706000Y-65024000D03*
X104936000Y-65024000D03*
X102166000Y-65024000D03*
X111861000Y-62184000D03*
X109091000Y-62184000D03*
X106321000Y-62184000D03*
X103551000Y-62184000D03*
D11*
X152527500Y-63604000D03*
X127527500Y-63604000D03*
D12*
X145567500Y-65024000D03*
D13*
X142797500Y-65024000D03*
X140027500Y-65024000D03*
X137257500Y-65024000D03*
X134487500Y-65024000D03*
X144182500Y-62184000D03*
X141412500Y-62184000D03*
X138642500Y-62184000D03*
X135872500Y-62184000D03*
D14*
X128524000Y-131268000D03*
D15*
X127254000Y-129988000D03*
X128524000Y-128728000D03*
D13*
X122414000Y-69770000D03*
X119914000Y-69770000D03*
D16*
X150622000Y-129794000D03*
D17*
X182680580Y-124137000D03*
X182680580Y-128637000D03*
D18*
X180190580Y-122887000D03*
X180190580Y-129897000D03*
D19*
X103999000Y-73072000D03*
D20*
X103999000Y-75612000D03*
X103999000Y-78152000D03*
X103999000Y-80692000D03*
X103999000Y-83232000D03*
X103999000Y-85772000D03*
X103999000Y-88312000D03*
X103999000Y-90852000D03*
X103999000Y-93392000D03*
X103999000Y-95932000D03*
X103999000Y-98472000D03*
X103999000Y-101012000D03*
X103999000Y-103552000D03*
X103999000Y-106092000D03*
X111619000Y-106092000D03*
X111619000Y-103552000D03*
X111619000Y-101012000D03*
X111619000Y-98472000D03*
X111619000Y-95932000D03*
X111619000Y-93392000D03*
X111619000Y-90852000D03*
X111619000Y-88312000D03*
X111619000Y-85772000D03*
X111619000Y-83232000D03*
X111619000Y-80692000D03*
X111619000Y-78152000D03*
X111619000Y-75612000D03*
X111619000Y-73072000D03*
D13*
X122414000Y-96186000D03*
X119914000Y-96186000D03*
D21*
X181596000Y-71294000D03*
D22*
X181596000Y-83994000D03*
D23*
X150735000Y-99488000D03*
D20*
X150735000Y-102028000D03*
X150735000Y-104568000D03*
X150735000Y-107108000D03*
X150735000Y-109648000D03*
X150735000Y-112188000D03*
X150735000Y-114728000D03*
X150735000Y-117268000D03*
X150735000Y-119808000D03*
D19*
X136384000Y-73072000D03*
D20*
X136384000Y-75612000D03*
X136384000Y-78152000D03*
X136384000Y-80692000D03*
X136384000Y-83232000D03*
X136384000Y-85772000D03*
X136384000Y-88312000D03*
X136384000Y-90852000D03*
X144004000Y-90852000D03*
X144004000Y-88312000D03*
X144004000Y-85772000D03*
X144004000Y-83232000D03*
X144004000Y-80692000D03*
X144004000Y-78152000D03*
X144004000Y-75612000D03*
X144004000Y-73072000D03*
D19*
X125589000Y-73072000D03*
D20*
X125589000Y-75612000D03*
X125589000Y-78152000D03*
X125589000Y-80692000D03*
X125589000Y-83232000D03*
X125589000Y-85772000D03*
X125589000Y-88312000D03*
X125589000Y-90852000D03*
X133209000Y-90852000D03*
X133209000Y-88312000D03*
X133209000Y-85772000D03*
X133209000Y-83232000D03*
X133209000Y-80692000D03*
X133209000Y-78152000D03*
X133209000Y-75612000D03*
X133209000Y-73072000D03*
D19*
X139813000Y-99488000D03*
D20*
X139813000Y-102028000D03*
X139813000Y-104568000D03*
X139813000Y-107108000D03*
X139813000Y-109648000D03*
X139813000Y-112188000D03*
X139813000Y-114728000D03*
X139813000Y-117268000D03*
X139813000Y-119808000D03*
X139813000Y-122348000D03*
X147433000Y-122348000D03*
X147433000Y-119808000D03*
X147433000Y-117268000D03*
X147433000Y-114728000D03*
X147433000Y-112188000D03*
X147433000Y-109648000D03*
X147433000Y-107108000D03*
X147433000Y-104568000D03*
X147433000Y-102028000D03*
X147433000Y-99488000D03*
D24*
X96695000Y-130021500D03*
X103495000Y-130021500D03*
D13*
X147560000Y-96186000D03*
X145060000Y-96186000D03*
D23*
X136511000Y-99488000D03*
D20*
X136511000Y-102028000D03*
X136511000Y-104568000D03*
X136511000Y-107108000D03*
X136511000Y-109648000D03*
X136511000Y-112188000D03*
X136511000Y-114728000D03*
X136511000Y-117268000D03*
X136511000Y-119808000D03*
D14*
X133350000Y-131238000D03*
D15*
X132080000Y-129958000D03*
X133350000Y-128698000D03*
D25*
X165554000Y-59539400D03*
X160554000Y-59539400D03*
D26*
X166929000Y-56789400D03*
D27*
X166779000Y-60589400D03*
X159329000Y-60589400D03*
D26*
X159179000Y-56789400D03*
D13*
X98558000Y-69770000D03*
X101058000Y-69770000D03*
D16*
X93204000Y-69596000D03*
D14*
X138176000Y-131238000D03*
D15*
X136906000Y-129958000D03*
X138176000Y-128698000D03*
D28*
X117654000Y-127718000D03*
D29*
X124154000Y-127718000D03*
X117654000Y-132218000D03*
X124154000Y-132218000D03*
D19*
X125589000Y-99488000D03*
D20*
X125589000Y-102028000D03*
X125589000Y-104568000D03*
X125589000Y-107108000D03*
X125589000Y-109648000D03*
X125589000Y-112188000D03*
X125589000Y-114728000D03*
X125589000Y-117268000D03*
X125589000Y-119808000D03*
X125589000Y-122348000D03*
X133209000Y-122348000D03*
X133209000Y-119808000D03*
X133209000Y-117268000D03*
X133209000Y-114728000D03*
X133209000Y-112188000D03*
X133209000Y-109648000D03*
X133209000Y-107108000D03*
X133209000Y-104568000D03*
X133209000Y-102028000D03*
X133209000Y-99488000D03*
D16*
X147560000Y-73072000D03*
D30*
X150100000Y-73072000D03*
X147560000Y-75612000D03*
X150100000Y-75612000D03*
X147560000Y-78152000D03*
X150100000Y-78152000D03*
D19*
X114794000Y-99488000D03*
D20*
X114794000Y-102028000D03*
X114794000Y-104568000D03*
X114794000Y-107108000D03*
X114794000Y-109648000D03*
X114794000Y-112188000D03*
X114794000Y-114728000D03*
X114794000Y-117268000D03*
X114794000Y-119808000D03*
X114794000Y-122348000D03*
X122414000Y-122348000D03*
X122414000Y-119808000D03*
X122414000Y-117268000D03*
X122414000Y-114728000D03*
X122414000Y-112188000D03*
X122414000Y-109648000D03*
X122414000Y-107108000D03*
X122414000Y-104568000D03*
X122414000Y-102028000D03*
X122414000Y-99488000D03*
D31*
X176770000Y-132508000D03*
D20*
X176770000Y-129968000D03*
X176770000Y-127428000D03*
X176770000Y-124888000D03*
X176770000Y-122348000D03*
X176770000Y-119808000D03*
X176770000Y-117268000D03*
X176770000Y-114728000D03*
X176770000Y-112188000D03*
X176770000Y-109648000D03*
X176770000Y-107108000D03*
X176770000Y-104568000D03*
X176770000Y-102028000D03*
X176770000Y-99488000D03*
X176770000Y-96948000D03*
X176770000Y-94408000D03*
X176770000Y-91868000D03*
X176770000Y-89328000D03*
X176770000Y-86788000D03*
X176773680Y-84250720D03*
X176773680Y-81710720D03*
X176773680Y-79170720D03*
X153910000Y-79168000D03*
X153910000Y-81708000D03*
X153910000Y-84248000D03*
X153910000Y-86788000D03*
X153910000Y-89328000D03*
X153910000Y-91868000D03*
X153910000Y-94408000D03*
X153910000Y-96948000D03*
X153910000Y-99488000D03*
X153910000Y-102028000D03*
X153910000Y-104568000D03*
X153910000Y-107108000D03*
X153910000Y-109648000D03*
X153910000Y-112188000D03*
X153910000Y-114728000D03*
X153910000Y-117268000D03*
X153910000Y-119808000D03*
X153910000Y-122348000D03*
X153910000Y-124888000D03*
X153910000Y-127428000D03*
X153910000Y-129968000D03*
X153910000Y-132508000D03*
D16*
X94107000Y-113284000D03*
D19*
X114794000Y-73072000D03*
D20*
X114794000Y-75612000D03*
X114794000Y-78152000D03*
X114794000Y-80692000D03*
X114794000Y-83232000D03*
X114794000Y-85772000D03*
X114794000Y-88312000D03*
X114794000Y-90852000D03*
X122414000Y-90852000D03*
X122414000Y-88312000D03*
X122414000Y-85772000D03*
X122414000Y-83232000D03*
X122414000Y-80692000D03*
X122414000Y-78152000D03*
X122414000Y-75612000D03*
X122414000Y-73072000D03*
D16*
X148576000Y-92122000D03*
X180575000Y-87809000D03*
D30*
X183115000Y-87809000D03*
X180575000Y-90349000D03*
X183115000Y-90349000D03*
X180575000Y-92889000D03*
X183115000Y-92889000D03*
X180575000Y-95429000D03*
X183115000Y-95429000D03*
X180575000Y-97969000D03*
X183115000Y-97969000D03*
D14*
X142944000Y-131238000D03*
D15*
X141674000Y-129958000D03*
X142944000Y-128698000D03*
D13*
X133336000Y-96186000D03*
X130836000Y-96186000D03*
D17*
X182681500Y-105412000D03*
X182681500Y-109912000D03*
D18*
X180191500Y-104162000D03*
X180191500Y-111172000D03*
D19*
X93204000Y-73072000D03*
D20*
X93204000Y-75612000D03*
X93204000Y-78152000D03*
X93204000Y-80692000D03*
X93204000Y-83232000D03*
X93204000Y-85772000D03*
X93204000Y-88312000D03*
X93204000Y-90852000D03*
X93204000Y-93392000D03*
X93204000Y-95932000D03*
X93204000Y-98472000D03*
X93204000Y-101012000D03*
X93204000Y-103552000D03*
X93204000Y-106092000D03*
X100824000Y-106092000D03*
X100824000Y-103552000D03*
X100824000Y-101012000D03*
X100824000Y-98472000D03*
X100824000Y-95932000D03*
X100824000Y-93392000D03*
X100824000Y-90852000D03*
X100824000Y-88312000D03*
X100824000Y-85772000D03*
X100824000Y-83232000D03*
X100824000Y-80692000D03*
X100824000Y-78152000D03*
X100824000Y-75612000D03*
X100824000Y-73072000D03*
D13*
X144004000Y-69770000D03*
X141504000Y-69770000D03*
D16*
X146812000Y-128693000D03*
D30*
X146812000Y-131233000D03*
D13*
X133336000Y-69770000D03*
X130836000Y-69770000D03*
D16*
X147555000Y-83247000D03*
D30*
X150095000Y-83247000D03*
X147555000Y-85787000D03*
X150095000Y-85787000D03*
X147555000Y-88327000D03*
X150095000Y-88327000D03*
D13*
X109226000Y-69770000D03*
X111726000Y-69770000D03*
D32*
X86854000Y-62912000D03*
D30*
X86854000Y-65452000D03*
X86854000Y-67992000D03*
X86854000Y-70532000D03*
X86854000Y-73072000D03*
X86854000Y-75612000D03*
X86854000Y-78152000D03*
X86854000Y-80692000D03*
X86854000Y-83232000D03*
X86854000Y-85772000D03*
X86854000Y-88312000D03*
X86854000Y-90852000D03*
X86854000Y-93392000D03*
X86854000Y-95932000D03*
X86854000Y-98472000D03*
X86854000Y-101012000D03*
X86854000Y-103552000D03*
X86854000Y-106092000D03*
X86854000Y-108632000D03*
X86854000Y-111172000D03*
X89394000Y-111172000D03*
X89394000Y-108632000D03*
X89394000Y-106092000D03*
X89394000Y-103552000D03*
X89394000Y-101012000D03*
X89394000Y-98472000D03*
X89394000Y-95932000D03*
X89394000Y-93392000D03*
X89394000Y-90852000D03*
X89394000Y-88312000D03*
X89394000Y-85772000D03*
X89394000Y-83232000D03*
X89394000Y-80692000D03*
X89394000Y-78152000D03*
X89394000Y-75612000D03*
X89394000Y-73072000D03*
X89394000Y-70532000D03*
X89394000Y-67992000D03*
X89394000Y-65452000D03*
X89394000Y-62912000D03*
D33*
X177694500Y-70278000D03*
X175619500Y-70278000D03*
D34*
X162814000Y-69008000D03*
X160814000Y-69008000D03*
D35*
X141224000Y-126634000D03*
X141224000Y-124634000D03*
D36*
X130824000Y-124628500D03*
X130824000Y-126628500D03*
D37*
X95976500Y-93392000D03*
X98051500Y-93392000D03*
D38*
X162748000Y-117682000D03*
X161798000Y-117682000D03*
X160848000Y-117682000D03*
X160848000Y-114982000D03*
X162748000Y-114982000D03*
D33*
X141231500Y-73072000D03*
X139156500Y-73072000D03*
D34*
X162798000Y-66976000D03*
X160798000Y-66976000D03*
D36*
X132856000Y-124628500D03*
X132856000Y-126628500D03*
D39*
X108458000Y-126978500D03*
X108458000Y-129053500D03*
D34*
X166848000Y-120316000D03*
X164848000Y-120316000D03*
D40*
X161038000Y-97964000D03*
X163038000Y-97964000D03*
D34*
X174468000Y-91868000D03*
X172468000Y-91868000D03*
D37*
X160979000Y-102028000D03*
X163054000Y-102028000D03*
D34*
X163038000Y-93900000D03*
X161038000Y-93900000D03*
D37*
X169382500Y-79422000D03*
X171457500Y-79422000D03*
D40*
X95506000Y-106854000D03*
X97506000Y-106854000D03*
D37*
X171428500Y-70278000D03*
X173503500Y-70278000D03*
D39*
X164719000Y-115294500D03*
X164719000Y-117369500D03*
D37*
X180558500Y-80692000D03*
X182633500Y-80692000D03*
X101564500Y-113712000D03*
X103639500Y-113712000D03*
D34*
X167610000Y-99996000D03*
X165610000Y-99996000D03*
D37*
X101564500Y-115744000D03*
X103639500Y-115744000D03*
D40*
X161038000Y-95932000D03*
X163038000Y-95932000D03*
D41*
X167137000Y-79466000D03*
X166487000Y-79466000D03*
X165837000Y-79466000D03*
X165187000Y-79466000D03*
X164537000Y-79466000D03*
X163887000Y-79466000D03*
X163237000Y-79466000D03*
X162587000Y-79466000D03*
X161937000Y-79466000D03*
X161287000Y-79466000D03*
X160637000Y-79466000D03*
X159987000Y-79466000D03*
X159987000Y-72266000D03*
X160637000Y-72266000D03*
X161287000Y-72266000D03*
X161937000Y-72266000D03*
X162587000Y-72266000D03*
X163237000Y-72266000D03*
X163887000Y-72266000D03*
X164537000Y-72266000D03*
X165187000Y-72266000D03*
X165837000Y-72266000D03*
X166487000Y-72266000D03*
X167137000Y-72266000D03*
D40*
X165340000Y-85772000D03*
X167340000Y-85772000D03*
D34*
X103870000Y-120904000D03*
X101870000Y-120904000D03*
D37*
X180235000Y-67434800D03*
X182310000Y-67434800D03*
D42*
X167386000Y-68601500D03*
X167386000Y-66526500D03*
D43*
X167976000Y-87870000D03*
X167976000Y-88820000D03*
X167976000Y-89770000D03*
X165276000Y-89770000D03*
X165276000Y-87870000D03*
D37*
X165318500Y-91868000D03*
X167393500Y-91868000D03*
D36*
X128792000Y-124628500D03*
X128792000Y-126628500D03*
D40*
X97425000Y-118872000D03*
X99425000Y-118872000D03*
D41*
X167137000Y-131028000D03*
X166487000Y-131028000D03*
X165837000Y-131028000D03*
X165187000Y-131028000D03*
X164537000Y-131028000D03*
X163887000Y-131028000D03*
X163237000Y-131028000D03*
X162587000Y-131028000D03*
X161937000Y-131028000D03*
X161287000Y-131028000D03*
X160637000Y-131028000D03*
X159987000Y-131028000D03*
X159987000Y-123828000D03*
X160637000Y-123828000D03*
X161287000Y-123828000D03*
X161937000Y-123828000D03*
X162587000Y-123828000D03*
X163237000Y-123828000D03*
X163887000Y-123828000D03*
X164537000Y-123828000D03*
X165187000Y-123828000D03*
X165837000Y-123828000D03*
X166487000Y-123828000D03*
X167137000Y-123828000D03*
D36*
X134888000Y-124628500D03*
X134888000Y-126628500D03*
D34*
X174468000Y-89328000D03*
X172468000Y-89328000D03*
D37*
X139156500Y-78152000D03*
X141231500Y-78152000D03*
D34*
X112254000Y-108886000D03*
X110254000Y-108886000D03*
X103870000Y-118872000D03*
X101870000Y-118872000D03*
X101570000Y-108759000D03*
X99570000Y-108759000D03*
D36*
X136920000Y-124628500D03*
X136920000Y-126628500D03*
D40*
X161038000Y-99996000D03*
X163038000Y-99996000D03*
D37*
X180558500Y-78152000D03*
X182633500Y-78152000D03*
D43*
X113770400Y-127066000D03*
X113770400Y-128016000D03*
X113770400Y-128966000D03*
X111070400Y-128966000D03*
X111070400Y-127066000D03*
D33*
X141231500Y-83232000D03*
X139156500Y-83232000D03*
D37*
X170144500Y-124888000D03*
X172219500Y-124888000D03*
D38*
X169352000Y-117682000D03*
X168402000Y-117682000D03*
X167452000Y-117682000D03*
X167452000Y-114982000D03*
X169352000Y-114982000D03*
D34*
X95982000Y-115744000D03*
X93982000Y-115744000D03*
D44*
X160196000Y-89770000D03*
X160196000Y-88820000D03*
X160196000Y-87870000D03*
X162896000Y-87870000D03*
X162896000Y-89770000D03*
D39*
X171323000Y-115294500D03*
X171323000Y-117369500D03*
D37*
X95990500Y-90932000D03*
X98065500Y-90932000D03*
X139156500Y-85772000D03*
X141231500Y-85772000D03*
D33*
X172241000Y-128952000D03*
X170166000Y-128952000D03*
X172241000Y-126920000D03*
X170166000Y-126920000D03*
D45*
X177691500Y-62848800D03*
X177691500Y-65148800D03*
X177691500Y-67448800D03*
D46*
X171391500Y-65148800D03*
D40*
X95506000Y-108759000D03*
X97506000Y-108759000D03*
D37*
X169382500Y-72310000D03*
X171457500Y-72310000D03*
D34*
X99792000Y-115744000D03*
X97792000Y-115744000D03*
X162784000Y-91868000D03*
X160784000Y-91868000D03*
D39*
X126760000Y-124591000D03*
X126760000Y-126666000D03*
D37*
X180235000Y-65148800D03*
X182310000Y-65148800D03*
D33*
X172219500Y-130984000D03*
X170144500Y-130984000D03*
X162800000Y-85772000D03*
X160725000Y-85772000D03*
D40*
X111268000Y-132334000D03*
X113268000Y-132334000D03*
D37*
X139156500Y-75612000D03*
X141231500Y-75612000D03*
D40*
X172468000Y-86788000D03*
X174468000Y-86788000D03*
M02*
