G04 #@! TF.GenerationSoftware,KiCad,Pcbnew,7.0.2*
G04 #@! TF.CreationDate,2023-06-21T14:39:40-07:00*
G04 #@! TF.ProjectId,ESP32_Interface,45535033-325f-4496-9e74-657266616365,1*
G04 #@! TF.SameCoordinates,Original*
G04 #@! TF.FileFunction,Soldermask,Top*
G04 #@! TF.FilePolarity,Negative*
%FSLAX46Y46*%
G04 Gerber Fmt 4.6, Leading zero omitted, Abs format (unit mm)*
G04 Created by KiCad (PCBNEW 7.0.2) date 2023-06-21 14:39:40*
%MOMM*%
%LPD*%
G01*
G04 APERTURE LIST*
G04 Aperture macros list*
%AMRoundRect*
0 Rectangle with rounded corners*
0 $1 Rounding radius*
0 $2 $3 $4 $5 $6 $7 $8 $9 X,Y pos of 4 corners*
0 Add a 4 corners polygon primitive as box body*
4,1,4,$2,$3,$4,$5,$6,$7,$8,$9,$2,$3,0*
0 Add four circle primitives for the rounded corners*
1,1,$1+$1,$2,$3*
1,1,$1+$1,$4,$5*
1,1,$1+$1,$6,$7*
1,1,$1+$1,$8,$9*
0 Add four rect primitives between the rounded corners*
20,1,$1+$1,$2,$3,$4,$5,0*
20,1,$1+$1,$4,$5,$6,$7,0*
20,1,$1+$1,$6,$7,$8,$9,0*
20,1,$1+$1,$8,$9,$2,$3,0*%
G04 Aperture macros list end*
%ADD10C,2.700000*%
%ADD11C,4.102000*%
%ADD12RoundRect,0.051000X0.800000X0.800000X-0.800000X0.800000X-0.800000X-0.800000X0.800000X-0.800000X0*%
%ADD13C,1.702000*%
%ADD14RoundRect,0.051000X0.650000X-0.650000X0.650000X0.650000X-0.650000X0.650000X-0.650000X-0.650000X0*%
%ADD15C,1.402000*%
%ADD16RoundRect,0.051000X-0.850000X-0.850000X0.850000X-0.850000X0.850000X0.850000X-0.850000X0.850000X0*%
%ADD17C,1.852000*%
%ADD18C,2.202000*%
%ADD19RoundRect,0.051000X-0.800000X-0.800000X0.800000X-0.800000X0.800000X0.800000X-0.800000X0.800000X0*%
%ADD20O,1.702000X1.702000*%
%ADD21RoundRect,0.051000X-1.200000X1.200000X-1.200000X-1.200000X1.200000X-1.200000X1.200000X1.200000X0*%
%ADD22O,2.502000X2.502000*%
%ADD23RoundRect,0.051000X-0.800000X0.800000X-0.800000X-0.800000X0.800000X-0.800000X0.800000X0.800000X0*%
%ADD24C,0.950000*%
%ADD25RoundRect,0.051000X-0.310000X-0.700000X0.310000X-0.700000X0.310000X0.700000X-0.310000X0.700000X0*%
%ADD26RoundRect,0.051000X-0.550000X-1.200000X0.550000X-1.200000X0.550000X1.200000X-0.550000X1.200000X0*%
%ADD27O,0.800000X0.800000*%
%ADD28RoundRect,0.051000X0.225000X0.650000X-0.225000X0.650000X-0.225000X-0.650000X0.225000X-0.650000X0*%
%ADD29O,1.252000X1.902000*%
%ADD30O,1.552000X2.102000*%
%ADD31RoundRect,0.051000X-1.100000X-1.100000X1.100000X-1.100000X1.100000X1.100000X-1.100000X1.100000X0*%
%ADD32C,2.302000*%
%ADD33O,1.802000X1.802000*%
%ADD34RoundRect,0.051000X0.800000X-0.800000X0.800000X0.800000X-0.800000X0.800000X-0.800000X-0.800000X0*%
%ADD35RoundRect,0.301000X-0.325000X-0.450000X0.325000X-0.450000X0.325000X0.450000X-0.325000X0.450000X0*%
%ADD36RoundRect,0.051000X0.850000X0.850000X-0.850000X0.850000X-0.850000X-0.850000X0.850000X-0.850000X0*%
G04 APERTURE END LIST*
D10*
X88000000Y-58000000D03*
X182000000Y-58000000D03*
X88000000Y-117000000D03*
X182000000Y-117000000D03*
X163000000Y-107190000D03*
D11*
X120206000Y-63604000D03*
X95206000Y-63604000D03*
D12*
X113246000Y-65024000D03*
D13*
X110476000Y-65024000D03*
X107706000Y-65024000D03*
X104936000Y-65024000D03*
X102166000Y-65024000D03*
X111861000Y-62184000D03*
X109091000Y-62184000D03*
X106321000Y-62184000D03*
X103551000Y-62184000D03*
D11*
X152527500Y-63604000D03*
X127527500Y-63604000D03*
D12*
X145567500Y-65024000D03*
D13*
X142797500Y-65024000D03*
X140027500Y-65024000D03*
X137257500Y-65024000D03*
X134487500Y-65024000D03*
X144182500Y-62184000D03*
X141412500Y-62184000D03*
X138642500Y-62184000D03*
X135872500Y-62184000D03*
D14*
X128524000Y-131268000D03*
D15*
X127254000Y-129988000D03*
X128524000Y-128728000D03*
D13*
X122414000Y-69770000D03*
X119914000Y-69770000D03*
D16*
X150622000Y-129794000D03*
D17*
X182680580Y-124137000D03*
X182680580Y-128637000D03*
D18*
X180190580Y-122887000D03*
X180190580Y-129897000D03*
D19*
X103999000Y-73072000D03*
D20*
X103999000Y-75612000D03*
X103999000Y-78152000D03*
X103999000Y-80692000D03*
X103999000Y-83232000D03*
X103999000Y-85772000D03*
X103999000Y-88312000D03*
X103999000Y-90852000D03*
X103999000Y-93392000D03*
X103999000Y-95932000D03*
X103999000Y-98472000D03*
X103999000Y-101012000D03*
X103999000Y-103552000D03*
X103999000Y-106092000D03*
X111619000Y-106092000D03*
X111619000Y-103552000D03*
X111619000Y-101012000D03*
X111619000Y-98472000D03*
X111619000Y-95932000D03*
X111619000Y-93392000D03*
X111619000Y-90852000D03*
X111619000Y-88312000D03*
X111619000Y-85772000D03*
X111619000Y-83232000D03*
X111619000Y-80692000D03*
X111619000Y-78152000D03*
X111619000Y-75612000D03*
X111619000Y-73072000D03*
D13*
X122414000Y-96186000D03*
X119914000Y-96186000D03*
D21*
X181596000Y-71294000D03*
D22*
X181596000Y-83994000D03*
D23*
X150735000Y-99488000D03*
D20*
X150735000Y-102028000D03*
X150735000Y-104568000D03*
X150735000Y-107108000D03*
X150735000Y-109648000D03*
X150735000Y-112188000D03*
X150735000Y-114728000D03*
X150735000Y-117268000D03*
X150735000Y-119808000D03*
D19*
X136384000Y-73072000D03*
D20*
X136384000Y-75612000D03*
X136384000Y-78152000D03*
X136384000Y-80692000D03*
X136384000Y-83232000D03*
X136384000Y-85772000D03*
X136384000Y-88312000D03*
X136384000Y-90852000D03*
X144004000Y-90852000D03*
X144004000Y-88312000D03*
X144004000Y-85772000D03*
X144004000Y-83232000D03*
X144004000Y-80692000D03*
X144004000Y-78152000D03*
X144004000Y-75612000D03*
X144004000Y-73072000D03*
D19*
X125589000Y-73072000D03*
D20*
X125589000Y-75612000D03*
X125589000Y-78152000D03*
X125589000Y-80692000D03*
X125589000Y-83232000D03*
X125589000Y-85772000D03*
X125589000Y-88312000D03*
X125589000Y-90852000D03*
X133209000Y-90852000D03*
X133209000Y-88312000D03*
X133209000Y-85772000D03*
X133209000Y-83232000D03*
X133209000Y-80692000D03*
X133209000Y-78152000D03*
X133209000Y-75612000D03*
X133209000Y-73072000D03*
D19*
X139813000Y-99488000D03*
D20*
X139813000Y-102028000D03*
X139813000Y-104568000D03*
X139813000Y-107108000D03*
X139813000Y-109648000D03*
X139813000Y-112188000D03*
X139813000Y-114728000D03*
X139813000Y-117268000D03*
X139813000Y-119808000D03*
X139813000Y-122348000D03*
X147433000Y-122348000D03*
X147433000Y-119808000D03*
X147433000Y-117268000D03*
X147433000Y-114728000D03*
X147433000Y-112188000D03*
X147433000Y-109648000D03*
X147433000Y-107108000D03*
X147433000Y-104568000D03*
X147433000Y-102028000D03*
X147433000Y-99488000D03*
D24*
X96695000Y-130021500D03*
X103495000Y-130021500D03*
D25*
X102675000Y-118601500D03*
X101575000Y-118601500D03*
X100475000Y-118601500D03*
X99375000Y-118601500D03*
X98275000Y-118601500D03*
X97175000Y-118601500D03*
X96075000Y-118601500D03*
X94975000Y-118601500D03*
X93875000Y-118601500D03*
D26*
X92495000Y-129601500D03*
X92495000Y-120601500D03*
X108645000Y-120601500D03*
X108645000Y-129601500D03*
D13*
X147560000Y-96186000D03*
X145060000Y-96186000D03*
D23*
X136511000Y-99488000D03*
D20*
X136511000Y-102028000D03*
X136511000Y-104568000D03*
X136511000Y-107108000D03*
X136511000Y-109648000D03*
X136511000Y-112188000D03*
X136511000Y-114728000D03*
X136511000Y-117268000D03*
X136511000Y-119808000D03*
D14*
X133350000Y-131238000D03*
D15*
X132080000Y-129958000D03*
X133350000Y-128698000D03*
D27*
X165554000Y-59539400D03*
X160554000Y-59539400D03*
D28*
X164354000Y-60639400D03*
X163704000Y-60639400D03*
X163054000Y-60639400D03*
X162404000Y-60639400D03*
X161754000Y-60639400D03*
D29*
X166929000Y-56789400D03*
D30*
X166779000Y-60589400D03*
X159329000Y-60589400D03*
D29*
X159179000Y-56789400D03*
D13*
X98558000Y-69770000D03*
X101058000Y-69770000D03*
D16*
X93204000Y-69596000D03*
D14*
X138176000Y-131238000D03*
D15*
X136906000Y-129958000D03*
X138176000Y-128698000D03*
D31*
X117654000Y-127718000D03*
D32*
X124154000Y-127718000D03*
X117654000Y-132218000D03*
X124154000Y-132218000D03*
D19*
X125589000Y-99488000D03*
D20*
X125589000Y-102028000D03*
X125589000Y-104568000D03*
X125589000Y-107108000D03*
X125589000Y-109648000D03*
X125589000Y-112188000D03*
X125589000Y-114728000D03*
X125589000Y-117268000D03*
X125589000Y-119808000D03*
X125589000Y-122348000D03*
X133209000Y-122348000D03*
X133209000Y-119808000D03*
X133209000Y-117268000D03*
X133209000Y-114728000D03*
X133209000Y-112188000D03*
X133209000Y-109648000D03*
X133209000Y-107108000D03*
X133209000Y-104568000D03*
X133209000Y-102028000D03*
X133209000Y-99488000D03*
D16*
X147560000Y-73072000D03*
D33*
X150100000Y-73072000D03*
X147560000Y-75612000D03*
X150100000Y-75612000D03*
X147560000Y-78152000D03*
X150100000Y-78152000D03*
D19*
X114794000Y-99488000D03*
D20*
X114794000Y-102028000D03*
X114794000Y-104568000D03*
X114794000Y-107108000D03*
X114794000Y-109648000D03*
X114794000Y-112188000D03*
X114794000Y-114728000D03*
X114794000Y-117268000D03*
X114794000Y-119808000D03*
X114794000Y-122348000D03*
X122414000Y-122348000D03*
X122414000Y-119808000D03*
X122414000Y-117268000D03*
X122414000Y-114728000D03*
X122414000Y-112188000D03*
X122414000Y-109648000D03*
X122414000Y-107108000D03*
X122414000Y-104568000D03*
X122414000Y-102028000D03*
X122414000Y-99488000D03*
D34*
X176770000Y-132508000D03*
D20*
X176770000Y-129968000D03*
X176770000Y-127428000D03*
X176770000Y-124888000D03*
X176770000Y-122348000D03*
X176770000Y-119808000D03*
X176770000Y-117268000D03*
X176770000Y-114728000D03*
X176770000Y-112188000D03*
X176770000Y-109648000D03*
X176770000Y-107108000D03*
X176770000Y-104568000D03*
X176770000Y-102028000D03*
X176770000Y-99488000D03*
X176770000Y-96948000D03*
X176770000Y-94408000D03*
X176770000Y-91868000D03*
X176770000Y-89328000D03*
X176770000Y-86788000D03*
X176773680Y-84250720D03*
X176773680Y-81710720D03*
X176773680Y-79170720D03*
X153910000Y-79168000D03*
X153910000Y-81708000D03*
X153910000Y-84248000D03*
X153910000Y-86788000D03*
X153910000Y-89328000D03*
X153910000Y-91868000D03*
X153910000Y-94408000D03*
X153910000Y-96948000D03*
X153910000Y-99488000D03*
X153910000Y-102028000D03*
X153910000Y-104568000D03*
X153910000Y-107108000D03*
X153910000Y-109648000D03*
X153910000Y-112188000D03*
X153910000Y-114728000D03*
X153910000Y-117268000D03*
X153910000Y-119808000D03*
X153910000Y-122348000D03*
X153910000Y-124888000D03*
X153910000Y-127428000D03*
X153910000Y-129968000D03*
X153910000Y-132508000D03*
D16*
X94107000Y-113284000D03*
D19*
X114794000Y-73072000D03*
D20*
X114794000Y-75612000D03*
X114794000Y-78152000D03*
X114794000Y-80692000D03*
X114794000Y-83232000D03*
X114794000Y-85772000D03*
X114794000Y-88312000D03*
X114794000Y-90852000D03*
X122414000Y-90852000D03*
X122414000Y-88312000D03*
X122414000Y-85772000D03*
X122414000Y-83232000D03*
X122414000Y-80692000D03*
X122414000Y-78152000D03*
X122414000Y-75612000D03*
X122414000Y-73072000D03*
D16*
X148576000Y-92122000D03*
X180575000Y-87809000D03*
D33*
X183115000Y-87809000D03*
X180575000Y-90349000D03*
X183115000Y-90349000D03*
X180575000Y-92889000D03*
X183115000Y-92889000D03*
X180575000Y-95429000D03*
X183115000Y-95429000D03*
X180575000Y-97969000D03*
X183115000Y-97969000D03*
D14*
X142944000Y-131238000D03*
D15*
X141674000Y-129958000D03*
X142944000Y-128698000D03*
D35*
X111243000Y-132334000D03*
X113293000Y-132334000D03*
D13*
X133336000Y-96186000D03*
X130836000Y-96186000D03*
D17*
X182681500Y-105412000D03*
X182681500Y-109912000D03*
D18*
X180191500Y-104162000D03*
X180191500Y-111172000D03*
D19*
X93204000Y-73072000D03*
D20*
X93204000Y-75612000D03*
X93204000Y-78152000D03*
X93204000Y-80692000D03*
X93204000Y-83232000D03*
X93204000Y-85772000D03*
X93204000Y-88312000D03*
X93204000Y-90852000D03*
X93204000Y-93392000D03*
X93204000Y-95932000D03*
X93204000Y-98472000D03*
X93204000Y-101012000D03*
X93204000Y-103552000D03*
X93204000Y-106092000D03*
X100824000Y-106092000D03*
X100824000Y-103552000D03*
X100824000Y-101012000D03*
X100824000Y-98472000D03*
X100824000Y-95932000D03*
X100824000Y-93392000D03*
X100824000Y-90852000D03*
X100824000Y-88312000D03*
X100824000Y-85772000D03*
X100824000Y-83232000D03*
X100824000Y-80692000D03*
X100824000Y-78152000D03*
X100824000Y-75612000D03*
X100824000Y-73072000D03*
D13*
X144004000Y-69770000D03*
X141504000Y-69770000D03*
D16*
X146812000Y-128693000D03*
D33*
X146812000Y-131233000D03*
D13*
X133336000Y-69770000D03*
X130836000Y-69770000D03*
D16*
X147555000Y-83247000D03*
D33*
X150095000Y-83247000D03*
X147555000Y-85787000D03*
X150095000Y-85787000D03*
X147555000Y-88327000D03*
X150095000Y-88327000D03*
D13*
X109226000Y-69770000D03*
X111726000Y-69770000D03*
D36*
X86854000Y-62912000D03*
D33*
X86854000Y-65452000D03*
X86854000Y-67992000D03*
X86854000Y-70532000D03*
X86854000Y-73072000D03*
X86854000Y-75612000D03*
X86854000Y-78152000D03*
X86854000Y-80692000D03*
X86854000Y-83232000D03*
X86854000Y-85772000D03*
X86854000Y-88312000D03*
X86854000Y-90852000D03*
X86854000Y-93392000D03*
X86854000Y-95932000D03*
X86854000Y-98472000D03*
X86854000Y-101012000D03*
X86854000Y-103552000D03*
X86854000Y-106092000D03*
X86854000Y-108632000D03*
X86854000Y-111172000D03*
X89394000Y-111172000D03*
X89394000Y-108632000D03*
X89394000Y-106092000D03*
X89394000Y-103552000D03*
X89394000Y-101012000D03*
X89394000Y-98472000D03*
X89394000Y-95932000D03*
X89394000Y-93392000D03*
X89394000Y-90852000D03*
X89394000Y-88312000D03*
X89394000Y-85772000D03*
X89394000Y-83232000D03*
X89394000Y-80692000D03*
X89394000Y-78152000D03*
X89394000Y-75612000D03*
X89394000Y-73072000D03*
X89394000Y-70532000D03*
X89394000Y-67992000D03*
X89394000Y-65452000D03*
X89394000Y-62912000D03*
M02*
