G04 #@! TF.GenerationSoftware,KiCad,Pcbnew,7.0.2*
G04 #@! TF.CreationDate,2023-06-21T14:39:40-07:00*
G04 #@! TF.ProjectId,ESP32_Interface,45535033-325f-4496-9e74-657266616365,1*
G04 #@! TF.SameCoordinates,Original*
G04 #@! TF.FileFunction,Paste,Bot*
G04 #@! TF.FilePolarity,Positive*
%FSLAX46Y46*%
G04 Gerber Fmt 4.6, Leading zero omitted, Abs format (unit mm)*
G04 Created by KiCad (PCBNEW 7.0.2) date 2023-06-21 14:39:40*
%MOMM*%
%LPD*%
G01*
G04 APERTURE LIST*
G04 Aperture macros list*
%AMRoundRect*
0 Rectangle with rounded corners*
0 $1 Rounding radius*
0 $2 $3 $4 $5 $6 $7 $8 $9 X,Y pos of 4 corners*
0 Add a 4 corners polygon primitive as box body*
4,1,4,$2,$3,$4,$5,$6,$7,$8,$9,$2,$3,0*
0 Add four circle primitives for the rounded corners*
1,1,$1+$1,$2,$3*
1,1,$1+$1,$4,$5*
1,1,$1+$1,$6,$7*
1,1,$1+$1,$8,$9*
0 Add four rect primitives between the rounded corners*
20,1,$1+$1,$2,$3,$4,$5,0*
20,1,$1+$1,$4,$5,$6,$7,0*
20,1,$1+$1,$6,$7,$8,$9,0*
20,1,$1+$1,$8,$9,$2,$3,0*%
G04 Aperture macros list end*
%ADD10RoundRect,0.250000X0.337500X0.475000X-0.337500X0.475000X-0.337500X-0.475000X0.337500X-0.475000X0*%
%ADD11RoundRect,0.250000X0.350000X0.450000X-0.350000X0.450000X-0.350000X-0.450000X0.350000X-0.450000X0*%
%ADD12RoundRect,0.250000X0.450000X-0.350000X0.450000X0.350000X-0.450000X0.350000X-0.450000X-0.350000X0*%
%ADD13RoundRect,0.250000X-0.450000X0.350000X-0.450000X-0.350000X0.450000X-0.350000X0.450000X0.350000X0*%
%ADD14RoundRect,0.250000X-0.337500X-0.475000X0.337500X-0.475000X0.337500X0.475000X-0.337500X0.475000X0*%
%ADD15R,0.650000X1.560000*%
%ADD16RoundRect,0.250000X-0.475000X0.337500X-0.475000X-0.337500X0.475000X-0.337500X0.475000X0.337500X0*%
%ADD17RoundRect,0.250000X-0.350000X-0.450000X0.350000X-0.450000X0.350000X0.450000X-0.350000X0.450000X0*%
%ADD18R,0.450000X1.750000*%
%ADD19RoundRect,0.250000X0.475000X-0.337500X0.475000X0.337500X-0.475000X0.337500X-0.475000X-0.337500X0*%
%ADD20R,1.560000X0.650000*%
%ADD21R,2.000000X1.500000*%
%ADD22R,2.000000X3.800000*%
G04 APERTURE END LIST*
D10*
X177694500Y-70278000D03*
X175619500Y-70278000D03*
D11*
X162814000Y-69008000D03*
X160814000Y-69008000D03*
D12*
X141224000Y-126634000D03*
X141224000Y-124634000D03*
D13*
X130824000Y-124628500D03*
X130824000Y-126628500D03*
D14*
X95976500Y-93392000D03*
X98051500Y-93392000D03*
D15*
X162748000Y-117682000D03*
X161798000Y-117682000D03*
X160848000Y-117682000D03*
X160848000Y-114982000D03*
X162748000Y-114982000D03*
D10*
X141231500Y-73072000D03*
X139156500Y-73072000D03*
D11*
X162798000Y-66976000D03*
X160798000Y-66976000D03*
D13*
X132856000Y-124628500D03*
X132856000Y-126628500D03*
D16*
X108458000Y-126978500D03*
X108458000Y-129053500D03*
D11*
X166848000Y-120316000D03*
X164848000Y-120316000D03*
D17*
X161038000Y-97964000D03*
X163038000Y-97964000D03*
D11*
X174468000Y-91868000D03*
X172468000Y-91868000D03*
D14*
X160979000Y-102028000D03*
X163054000Y-102028000D03*
D11*
X163038000Y-93900000D03*
X161038000Y-93900000D03*
D14*
X169382500Y-79422000D03*
X171457500Y-79422000D03*
D17*
X95506000Y-106854000D03*
X97506000Y-106854000D03*
D14*
X171428500Y-70278000D03*
X173503500Y-70278000D03*
D16*
X164719000Y-115294500D03*
X164719000Y-117369500D03*
D14*
X180558500Y-80692000D03*
X182633500Y-80692000D03*
X101564500Y-113712000D03*
X103639500Y-113712000D03*
D11*
X167610000Y-99996000D03*
X165610000Y-99996000D03*
D14*
X101564500Y-115744000D03*
X103639500Y-115744000D03*
D17*
X161038000Y-95932000D03*
X163038000Y-95932000D03*
D18*
X167137000Y-79466000D03*
X166487000Y-79466000D03*
X165837000Y-79466000D03*
X165187000Y-79466000D03*
X164537000Y-79466000D03*
X163887000Y-79466000D03*
X163237000Y-79466000D03*
X162587000Y-79466000D03*
X161937000Y-79466000D03*
X161287000Y-79466000D03*
X160637000Y-79466000D03*
X159987000Y-79466000D03*
X159987000Y-72266000D03*
X160637000Y-72266000D03*
X161287000Y-72266000D03*
X161937000Y-72266000D03*
X162587000Y-72266000D03*
X163237000Y-72266000D03*
X163887000Y-72266000D03*
X164537000Y-72266000D03*
X165187000Y-72266000D03*
X165837000Y-72266000D03*
X166487000Y-72266000D03*
X167137000Y-72266000D03*
D17*
X165340000Y-85772000D03*
X167340000Y-85772000D03*
D11*
X103870000Y-120904000D03*
X101870000Y-120904000D03*
D14*
X180235000Y-67434800D03*
X182310000Y-67434800D03*
D19*
X167386000Y-68601500D03*
X167386000Y-66526500D03*
D20*
X167976000Y-87870000D03*
X167976000Y-88820000D03*
X167976000Y-89770000D03*
X165276000Y-89770000D03*
X165276000Y-87870000D03*
D14*
X165318500Y-91868000D03*
X167393500Y-91868000D03*
D13*
X128792000Y-124628500D03*
X128792000Y-126628500D03*
D17*
X97425000Y-118872000D03*
X99425000Y-118872000D03*
D18*
X167137000Y-131028000D03*
X166487000Y-131028000D03*
X165837000Y-131028000D03*
X165187000Y-131028000D03*
X164537000Y-131028000D03*
X163887000Y-131028000D03*
X163237000Y-131028000D03*
X162587000Y-131028000D03*
X161937000Y-131028000D03*
X161287000Y-131028000D03*
X160637000Y-131028000D03*
X159987000Y-131028000D03*
X159987000Y-123828000D03*
X160637000Y-123828000D03*
X161287000Y-123828000D03*
X161937000Y-123828000D03*
X162587000Y-123828000D03*
X163237000Y-123828000D03*
X163887000Y-123828000D03*
X164537000Y-123828000D03*
X165187000Y-123828000D03*
X165837000Y-123828000D03*
X166487000Y-123828000D03*
X167137000Y-123828000D03*
D13*
X134888000Y-124628500D03*
X134888000Y-126628500D03*
D11*
X174468000Y-89328000D03*
X172468000Y-89328000D03*
D14*
X139156500Y-78152000D03*
X141231500Y-78152000D03*
D11*
X112254000Y-108886000D03*
X110254000Y-108886000D03*
X103870000Y-118872000D03*
X101870000Y-118872000D03*
X101570000Y-108759000D03*
X99570000Y-108759000D03*
D13*
X136920000Y-124628500D03*
X136920000Y-126628500D03*
D17*
X161038000Y-99996000D03*
X163038000Y-99996000D03*
D14*
X180558500Y-78152000D03*
X182633500Y-78152000D03*
D20*
X113770400Y-127066000D03*
X113770400Y-128016000D03*
X113770400Y-128966000D03*
X111070400Y-128966000D03*
X111070400Y-127066000D03*
D10*
X141231500Y-83232000D03*
X139156500Y-83232000D03*
D14*
X170144500Y-124888000D03*
X172219500Y-124888000D03*
D15*
X169352000Y-117682000D03*
X168402000Y-117682000D03*
X167452000Y-117682000D03*
X167452000Y-114982000D03*
X169352000Y-114982000D03*
D11*
X95982000Y-115744000D03*
X93982000Y-115744000D03*
D20*
X160196000Y-89770000D03*
X160196000Y-88820000D03*
X160196000Y-87870000D03*
X162896000Y-87870000D03*
X162896000Y-89770000D03*
D16*
X171323000Y-115294500D03*
X171323000Y-117369500D03*
D14*
X95990500Y-90932000D03*
X98065500Y-90932000D03*
X139156500Y-85772000D03*
X141231500Y-85772000D03*
D10*
X172241000Y-128952000D03*
X170166000Y-128952000D03*
X172241000Y-126920000D03*
X170166000Y-126920000D03*
D21*
X177691500Y-62848800D03*
X177691500Y-65148800D03*
X177691500Y-67448800D03*
D22*
X171391500Y-65148800D03*
D17*
X95506000Y-108759000D03*
X97506000Y-108759000D03*
D14*
X169382500Y-72310000D03*
X171457500Y-72310000D03*
D11*
X99792000Y-115744000D03*
X97792000Y-115744000D03*
X162784000Y-91868000D03*
X160784000Y-91868000D03*
D16*
X126760000Y-124591000D03*
X126760000Y-126666000D03*
D14*
X180235000Y-65148800D03*
X182310000Y-65148800D03*
D10*
X172219500Y-130984000D03*
X170144500Y-130984000D03*
X162800000Y-85772000D03*
X160725000Y-85772000D03*
D17*
X111268000Y-132334000D03*
X113268000Y-132334000D03*
D14*
X139156500Y-75612000D03*
X141231500Y-75612000D03*
D17*
X172468000Y-86788000D03*
X174468000Y-86788000D03*
M02*
