%TF.GenerationSoftware,KiCad,Pcbnew,7.0.2*%
%TF.CreationDate,2023-06-21T14:39:48-07:00*%
%TF.ProjectId,ESP32_Interface,45535033-325f-4496-9e74-657266616365,1*%
%TF.SameCoordinates,Original*%
%TF.FileFunction,Drillmap*%
%TF.FilePolarity,Positive*%
%FSLAX45Y45*%
G04 Gerber Fmt 4.5, Leading zero omitted, Abs format (unit mm)*
G04 Created by KiCad (PCBNEW 7.0.2) date 2023-06-21 14:39:48*
%MOMM*%
%LPD*%
G01*
G04 APERTURE LIST*
%ADD10C,0.500000*%
%ADD11C,0.200000*%
%ADD12C,0.080000*%
%ADD13C,0.095000*%
%ADD14C,0.270000*%
G04 APERTURE END LIST*
D10*
X8500000Y-13100000D02*
X8500000Y-5800000D01*
X18200000Y-13400000D02*
G75*
G03*
X18500000Y-13100000I0J300000D01*
G01*
X8500000Y-13100000D02*
G75*
G03*
X8800000Y-13400000I300000J0D01*
G01*
X18200000Y-13400000D02*
X8800000Y-13400000D01*
X8800000Y-5500000D02*
X18200000Y-5500000D01*
X8800000Y-5500000D02*
G75*
G03*
X8500000Y-5800000I0J-300000D01*
G01*
X18500000Y-5800000D02*
G75*
G03*
X18200000Y-5500000I-300000J0D01*
G01*
X18500000Y-5800000D02*
X18500000Y-13100000D01*
D11*
D12*
X16015400Y-5913940D02*
X16095400Y-5993940D01*
X16095400Y-5913940D02*
X16015400Y-5993940D01*
X16515400Y-5913940D02*
X16595400Y-5993940D01*
X16595400Y-5913940D02*
X16515400Y-5993940D01*
D13*
X9717000Y-13002150D02*
G75*
G03*
X9717000Y-13002150I-47500J0D01*
G01*
X10397000Y-13002150D02*
G75*
G03*
X10397000Y-13002150I-47500J0D01*
G01*
D14*
X8800000Y-5665000D02*
X8800000Y-5935000D01*
X8665000Y-5800000D02*
X8935000Y-5800000D01*
X8800000Y-11565000D02*
X8800000Y-11835000D01*
X8665000Y-11700000D02*
X8935000Y-11700000D01*
X16300000Y-10584000D02*
X16300000Y-10854000D01*
X16165000Y-10719000D02*
X16435000Y-10719000D01*
X18200000Y-5665000D02*
X18200000Y-5935000D01*
X18065000Y-5800000D02*
X18335000Y-5800000D01*
X18200000Y-11565000D02*
X18200000Y-11835000D01*
X18065000Y-11700000D02*
X18335000Y-11700000D01*
D11*
X8722619Y-13737524D02*
X8722619Y-13537524D01*
X8722619Y-13537524D02*
X8770238Y-13537524D01*
X8770238Y-13537524D02*
X8798810Y-13547048D01*
X8798810Y-13547048D02*
X8817857Y-13566095D01*
X8817857Y-13566095D02*
X8827381Y-13585143D01*
X8827381Y-13585143D02*
X8836905Y-13623238D01*
X8836905Y-13623238D02*
X8836905Y-13651809D01*
X8836905Y-13651809D02*
X8827381Y-13689905D01*
X8827381Y-13689905D02*
X8817857Y-13708952D01*
X8817857Y-13708952D02*
X8798810Y-13728000D01*
X8798810Y-13728000D02*
X8770238Y-13737524D01*
X8770238Y-13737524D02*
X8722619Y-13737524D01*
X8922619Y-13737524D02*
X8922619Y-13604190D01*
X8922619Y-13642286D02*
X8932143Y-13623238D01*
X8932143Y-13623238D02*
X8941667Y-13613714D01*
X8941667Y-13613714D02*
X8960714Y-13604190D01*
X8960714Y-13604190D02*
X8979762Y-13604190D01*
X9046429Y-13737524D02*
X9046429Y-13604190D01*
X9046429Y-13537524D02*
X9036905Y-13547048D01*
X9036905Y-13547048D02*
X9046429Y-13556571D01*
X9046429Y-13556571D02*
X9055952Y-13547048D01*
X9055952Y-13547048D02*
X9046429Y-13537524D01*
X9046429Y-13537524D02*
X9046429Y-13556571D01*
X9170238Y-13737524D02*
X9151190Y-13728000D01*
X9151190Y-13728000D02*
X9141667Y-13708952D01*
X9141667Y-13708952D02*
X9141667Y-13537524D01*
X9275000Y-13737524D02*
X9255952Y-13728000D01*
X9255952Y-13728000D02*
X9246429Y-13708952D01*
X9246429Y-13708952D02*
X9246429Y-13537524D01*
X9503571Y-13737524D02*
X9503571Y-13537524D01*
X9503571Y-13537524D02*
X9570238Y-13680381D01*
X9570238Y-13680381D02*
X9636905Y-13537524D01*
X9636905Y-13537524D02*
X9636905Y-13737524D01*
X9817857Y-13737524D02*
X9817857Y-13632762D01*
X9817857Y-13632762D02*
X9808333Y-13613714D01*
X9808333Y-13613714D02*
X9789286Y-13604190D01*
X9789286Y-13604190D02*
X9751190Y-13604190D01*
X9751190Y-13604190D02*
X9732143Y-13613714D01*
X9817857Y-13728000D02*
X9798810Y-13737524D01*
X9798810Y-13737524D02*
X9751190Y-13737524D01*
X9751190Y-13737524D02*
X9732143Y-13728000D01*
X9732143Y-13728000D02*
X9722619Y-13708952D01*
X9722619Y-13708952D02*
X9722619Y-13689905D01*
X9722619Y-13689905D02*
X9732143Y-13670857D01*
X9732143Y-13670857D02*
X9751190Y-13661333D01*
X9751190Y-13661333D02*
X9798810Y-13661333D01*
X9798810Y-13661333D02*
X9817857Y-13651809D01*
X9913095Y-13604190D02*
X9913095Y-13804190D01*
X9913095Y-13613714D02*
X9932143Y-13604190D01*
X9932143Y-13604190D02*
X9970238Y-13604190D01*
X9970238Y-13604190D02*
X9989286Y-13613714D01*
X9989286Y-13613714D02*
X9998810Y-13623238D01*
X9998810Y-13623238D02*
X10008333Y-13642286D01*
X10008333Y-13642286D02*
X10008333Y-13699428D01*
X10008333Y-13699428D02*
X9998810Y-13718476D01*
X9998810Y-13718476D02*
X9989286Y-13728000D01*
X9989286Y-13728000D02*
X9970238Y-13737524D01*
X9970238Y-13737524D02*
X9932143Y-13737524D01*
X9932143Y-13737524D02*
X9913095Y-13728000D01*
X10094048Y-13718476D02*
X10103571Y-13728000D01*
X10103571Y-13728000D02*
X10094048Y-13737524D01*
X10094048Y-13737524D02*
X10084524Y-13728000D01*
X10084524Y-13728000D02*
X10094048Y-13718476D01*
X10094048Y-13718476D02*
X10094048Y-13737524D01*
X10094048Y-13613714D02*
X10103571Y-13623238D01*
X10103571Y-13623238D02*
X10094048Y-13632762D01*
X10094048Y-13632762D02*
X10084524Y-13623238D01*
X10084524Y-13623238D02*
X10094048Y-13613714D01*
X10094048Y-13613714D02*
X10094048Y-13632762D01*
D12*
X8395000Y-14025000D02*
X8475000Y-14105000D01*
X8475000Y-14025000D02*
X8395000Y-14105000D01*
D11*
X8760714Y-13957524D02*
X8779762Y-13957524D01*
X8779762Y-13957524D02*
X8798810Y-13967048D01*
X8798810Y-13967048D02*
X8808333Y-13976571D01*
X8808333Y-13976571D02*
X8817857Y-13995619D01*
X8817857Y-13995619D02*
X8827381Y-14033714D01*
X8827381Y-14033714D02*
X8827381Y-14081333D01*
X8827381Y-14081333D02*
X8817857Y-14119428D01*
X8817857Y-14119428D02*
X8808333Y-14138476D01*
X8808333Y-14138476D02*
X8798810Y-14148000D01*
X8798810Y-14148000D02*
X8779762Y-14157524D01*
X8779762Y-14157524D02*
X8760714Y-14157524D01*
X8760714Y-14157524D02*
X8741667Y-14148000D01*
X8741667Y-14148000D02*
X8732143Y-14138476D01*
X8732143Y-14138476D02*
X8722619Y-14119428D01*
X8722619Y-14119428D02*
X8713095Y-14081333D01*
X8713095Y-14081333D02*
X8713095Y-14033714D01*
X8713095Y-14033714D02*
X8722619Y-13995619D01*
X8722619Y-13995619D02*
X8732143Y-13976571D01*
X8732143Y-13976571D02*
X8741667Y-13967048D01*
X8741667Y-13967048D02*
X8760714Y-13957524D01*
X8913095Y-14138476D02*
X8922619Y-14148000D01*
X8922619Y-14148000D02*
X8913095Y-14157524D01*
X8913095Y-14157524D02*
X8903571Y-14148000D01*
X8903571Y-14148000D02*
X8913095Y-14138476D01*
X8913095Y-14138476D02*
X8913095Y-14157524D01*
X9036905Y-14043238D02*
X9017857Y-14033714D01*
X9017857Y-14033714D02*
X9008333Y-14024190D01*
X9008333Y-14024190D02*
X8998810Y-14005143D01*
X8998810Y-14005143D02*
X8998810Y-13995619D01*
X8998810Y-13995619D02*
X9008333Y-13976571D01*
X9008333Y-13976571D02*
X9017857Y-13967048D01*
X9017857Y-13967048D02*
X9036905Y-13957524D01*
X9036905Y-13957524D02*
X9075000Y-13957524D01*
X9075000Y-13957524D02*
X9094048Y-13967048D01*
X9094048Y-13967048D02*
X9103571Y-13976571D01*
X9103571Y-13976571D02*
X9113095Y-13995619D01*
X9113095Y-13995619D02*
X9113095Y-14005143D01*
X9113095Y-14005143D02*
X9103571Y-14024190D01*
X9103571Y-14024190D02*
X9094048Y-14033714D01*
X9094048Y-14033714D02*
X9075000Y-14043238D01*
X9075000Y-14043238D02*
X9036905Y-14043238D01*
X9036905Y-14043238D02*
X9017857Y-14052762D01*
X9017857Y-14052762D02*
X9008333Y-14062286D01*
X9008333Y-14062286D02*
X8998810Y-14081333D01*
X8998810Y-14081333D02*
X8998810Y-14119428D01*
X8998810Y-14119428D02*
X9008333Y-14138476D01*
X9008333Y-14138476D02*
X9017857Y-14148000D01*
X9017857Y-14148000D02*
X9036905Y-14157524D01*
X9036905Y-14157524D02*
X9075000Y-14157524D01*
X9075000Y-14157524D02*
X9094048Y-14148000D01*
X9094048Y-14148000D02*
X9103571Y-14138476D01*
X9103571Y-14138476D02*
X9113095Y-14119428D01*
X9113095Y-14119428D02*
X9113095Y-14081333D01*
X9113095Y-14081333D02*
X9103571Y-14062286D01*
X9103571Y-14062286D02*
X9094048Y-14052762D01*
X9094048Y-14052762D02*
X9075000Y-14043238D01*
X9236905Y-13957524D02*
X9255952Y-13957524D01*
X9255952Y-13957524D02*
X9275000Y-13967048D01*
X9275000Y-13967048D02*
X9284524Y-13976571D01*
X9284524Y-13976571D02*
X9294048Y-13995619D01*
X9294048Y-13995619D02*
X9303571Y-14033714D01*
X9303571Y-14033714D02*
X9303571Y-14081333D01*
X9303571Y-14081333D02*
X9294048Y-14119428D01*
X9294048Y-14119428D02*
X9284524Y-14138476D01*
X9284524Y-14138476D02*
X9275000Y-14148000D01*
X9275000Y-14148000D02*
X9255952Y-14157524D01*
X9255952Y-14157524D02*
X9236905Y-14157524D01*
X9236905Y-14157524D02*
X9217857Y-14148000D01*
X9217857Y-14148000D02*
X9208333Y-14138476D01*
X9208333Y-14138476D02*
X9198810Y-14119428D01*
X9198810Y-14119428D02*
X9189286Y-14081333D01*
X9189286Y-14081333D02*
X9189286Y-14033714D01*
X9189286Y-14033714D02*
X9198810Y-13995619D01*
X9198810Y-13995619D02*
X9208333Y-13976571D01*
X9208333Y-13976571D02*
X9217857Y-13967048D01*
X9217857Y-13967048D02*
X9236905Y-13957524D01*
X9427381Y-13957524D02*
X9446429Y-13957524D01*
X9446429Y-13957524D02*
X9465476Y-13967048D01*
X9465476Y-13967048D02*
X9475000Y-13976571D01*
X9475000Y-13976571D02*
X9484524Y-13995619D01*
X9484524Y-13995619D02*
X9494048Y-14033714D01*
X9494048Y-14033714D02*
X9494048Y-14081333D01*
X9494048Y-14081333D02*
X9484524Y-14119428D01*
X9484524Y-14119428D02*
X9475000Y-14138476D01*
X9475000Y-14138476D02*
X9465476Y-14148000D01*
X9465476Y-14148000D02*
X9446429Y-14157524D01*
X9446429Y-14157524D02*
X9427381Y-14157524D01*
X9427381Y-14157524D02*
X9408333Y-14148000D01*
X9408333Y-14148000D02*
X9398810Y-14138476D01*
X9398810Y-14138476D02*
X9389286Y-14119428D01*
X9389286Y-14119428D02*
X9379762Y-14081333D01*
X9379762Y-14081333D02*
X9379762Y-14033714D01*
X9379762Y-14033714D02*
X9389286Y-13995619D01*
X9389286Y-13995619D02*
X9398810Y-13976571D01*
X9398810Y-13976571D02*
X9408333Y-13967048D01*
X9408333Y-13967048D02*
X9427381Y-13957524D01*
X9579762Y-14157524D02*
X9579762Y-14024190D01*
X9579762Y-14043238D02*
X9589286Y-14033714D01*
X9589286Y-14033714D02*
X9608333Y-14024190D01*
X9608333Y-14024190D02*
X9636905Y-14024190D01*
X9636905Y-14024190D02*
X9655952Y-14033714D01*
X9655952Y-14033714D02*
X9665476Y-14052762D01*
X9665476Y-14052762D02*
X9665476Y-14157524D01*
X9665476Y-14052762D02*
X9675000Y-14033714D01*
X9675000Y-14033714D02*
X9694048Y-14024190D01*
X9694048Y-14024190D02*
X9722619Y-14024190D01*
X9722619Y-14024190D02*
X9741667Y-14033714D01*
X9741667Y-14033714D02*
X9751191Y-14052762D01*
X9751191Y-14052762D02*
X9751191Y-14157524D01*
X9846429Y-14157524D02*
X9846429Y-14024190D01*
X9846429Y-14043238D02*
X9855952Y-14033714D01*
X9855952Y-14033714D02*
X9875000Y-14024190D01*
X9875000Y-14024190D02*
X9903572Y-14024190D01*
X9903572Y-14024190D02*
X9922619Y-14033714D01*
X9922619Y-14033714D02*
X9932143Y-14052762D01*
X9932143Y-14052762D02*
X9932143Y-14157524D01*
X9932143Y-14052762D02*
X9941667Y-14033714D01*
X9941667Y-14033714D02*
X9960714Y-14024190D01*
X9960714Y-14024190D02*
X9989286Y-14024190D01*
X9989286Y-14024190D02*
X10008333Y-14033714D01*
X10008333Y-14033714D02*
X10017857Y-14052762D01*
X10017857Y-14052762D02*
X10017857Y-14157524D01*
X10408333Y-13948000D02*
X10236905Y-14205143D01*
X10665476Y-13957524D02*
X10684524Y-13957524D01*
X10684524Y-13957524D02*
X10703572Y-13967048D01*
X10703572Y-13967048D02*
X10713095Y-13976571D01*
X10713095Y-13976571D02*
X10722619Y-13995619D01*
X10722619Y-13995619D02*
X10732143Y-14033714D01*
X10732143Y-14033714D02*
X10732143Y-14081333D01*
X10732143Y-14081333D02*
X10722619Y-14119428D01*
X10722619Y-14119428D02*
X10713095Y-14138476D01*
X10713095Y-14138476D02*
X10703572Y-14148000D01*
X10703572Y-14148000D02*
X10684524Y-14157524D01*
X10684524Y-14157524D02*
X10665476Y-14157524D01*
X10665476Y-14157524D02*
X10646429Y-14148000D01*
X10646429Y-14148000D02*
X10636905Y-14138476D01*
X10636905Y-14138476D02*
X10627381Y-14119428D01*
X10627381Y-14119428D02*
X10617857Y-14081333D01*
X10617857Y-14081333D02*
X10617857Y-14033714D01*
X10617857Y-14033714D02*
X10627381Y-13995619D01*
X10627381Y-13995619D02*
X10636905Y-13976571D01*
X10636905Y-13976571D02*
X10646429Y-13967048D01*
X10646429Y-13967048D02*
X10665476Y-13957524D01*
X10817857Y-14138476D02*
X10827381Y-14148000D01*
X10827381Y-14148000D02*
X10817857Y-14157524D01*
X10817857Y-14157524D02*
X10808334Y-14148000D01*
X10808334Y-14148000D02*
X10817857Y-14138476D01*
X10817857Y-14138476D02*
X10817857Y-14157524D01*
X10951191Y-13957524D02*
X10970238Y-13957524D01*
X10970238Y-13957524D02*
X10989286Y-13967048D01*
X10989286Y-13967048D02*
X10998810Y-13976571D01*
X10998810Y-13976571D02*
X11008334Y-13995619D01*
X11008334Y-13995619D02*
X11017857Y-14033714D01*
X11017857Y-14033714D02*
X11017857Y-14081333D01*
X11017857Y-14081333D02*
X11008334Y-14119428D01*
X11008334Y-14119428D02*
X10998810Y-14138476D01*
X10998810Y-14138476D02*
X10989286Y-14148000D01*
X10989286Y-14148000D02*
X10970238Y-14157524D01*
X10970238Y-14157524D02*
X10951191Y-14157524D01*
X10951191Y-14157524D02*
X10932143Y-14148000D01*
X10932143Y-14148000D02*
X10922619Y-14138476D01*
X10922619Y-14138476D02*
X10913095Y-14119428D01*
X10913095Y-14119428D02*
X10903572Y-14081333D01*
X10903572Y-14081333D02*
X10903572Y-14033714D01*
X10903572Y-14033714D02*
X10913095Y-13995619D01*
X10913095Y-13995619D02*
X10922619Y-13976571D01*
X10922619Y-13976571D02*
X10932143Y-13967048D01*
X10932143Y-13967048D02*
X10951191Y-13957524D01*
X11084524Y-13957524D02*
X11208333Y-13957524D01*
X11208333Y-13957524D02*
X11141667Y-14033714D01*
X11141667Y-14033714D02*
X11170238Y-14033714D01*
X11170238Y-14033714D02*
X11189286Y-14043238D01*
X11189286Y-14043238D02*
X11198810Y-14052762D01*
X11198810Y-14052762D02*
X11208333Y-14071809D01*
X11208333Y-14071809D02*
X11208333Y-14119428D01*
X11208333Y-14119428D02*
X11198810Y-14138476D01*
X11198810Y-14138476D02*
X11189286Y-14148000D01*
X11189286Y-14148000D02*
X11170238Y-14157524D01*
X11170238Y-14157524D02*
X11113095Y-14157524D01*
X11113095Y-14157524D02*
X11094048Y-14148000D01*
X11094048Y-14148000D02*
X11084524Y-14138476D01*
X11398810Y-14157524D02*
X11284524Y-14157524D01*
X11341667Y-14157524D02*
X11341667Y-13957524D01*
X11341667Y-13957524D02*
X11322619Y-13986095D01*
X11322619Y-13986095D02*
X11303572Y-14005143D01*
X11303572Y-14005143D02*
X11284524Y-14014667D01*
X11579762Y-13957524D02*
X11484524Y-13957524D01*
X11484524Y-13957524D02*
X11475000Y-14052762D01*
X11475000Y-14052762D02*
X11484524Y-14043238D01*
X11484524Y-14043238D02*
X11503572Y-14033714D01*
X11503572Y-14033714D02*
X11551191Y-14033714D01*
X11551191Y-14033714D02*
X11570238Y-14043238D01*
X11570238Y-14043238D02*
X11579762Y-14052762D01*
X11579762Y-14052762D02*
X11589286Y-14071809D01*
X11589286Y-14071809D02*
X11589286Y-14119428D01*
X11589286Y-14119428D02*
X11579762Y-14138476D01*
X11579762Y-14138476D02*
X11570238Y-14148000D01*
X11570238Y-14148000D02*
X11551191Y-14157524D01*
X11551191Y-14157524D02*
X11503572Y-14157524D01*
X11503572Y-14157524D02*
X11484524Y-14148000D01*
X11484524Y-14148000D02*
X11475000Y-14138476D01*
X11665476Y-13957524D02*
X11665476Y-13995619D01*
X11741667Y-13957524D02*
X11741667Y-13995619D01*
X12036905Y-14233714D02*
X12027381Y-14224190D01*
X12027381Y-14224190D02*
X12008334Y-14195619D01*
X12008334Y-14195619D02*
X11998810Y-14176571D01*
X11998810Y-14176571D02*
X11989286Y-14148000D01*
X11989286Y-14148000D02*
X11979762Y-14100381D01*
X11979762Y-14100381D02*
X11979762Y-14062286D01*
X11979762Y-14062286D02*
X11989286Y-14014667D01*
X11989286Y-14014667D02*
X11998810Y-13986095D01*
X11998810Y-13986095D02*
X12008334Y-13967048D01*
X12008334Y-13967048D02*
X12027381Y-13938476D01*
X12027381Y-13938476D02*
X12036905Y-13928952D01*
X12103572Y-13976571D02*
X12113095Y-13967048D01*
X12113095Y-13967048D02*
X12132143Y-13957524D01*
X12132143Y-13957524D02*
X12179762Y-13957524D01*
X12179762Y-13957524D02*
X12198810Y-13967048D01*
X12198810Y-13967048D02*
X12208334Y-13976571D01*
X12208334Y-13976571D02*
X12217857Y-13995619D01*
X12217857Y-13995619D02*
X12217857Y-14014667D01*
X12217857Y-14014667D02*
X12208334Y-14043238D01*
X12208334Y-14043238D02*
X12094048Y-14157524D01*
X12094048Y-14157524D02*
X12217857Y-14157524D01*
X12455953Y-14157524D02*
X12455953Y-13957524D01*
X12541667Y-14157524D02*
X12541667Y-14052762D01*
X12541667Y-14052762D02*
X12532143Y-14033714D01*
X12532143Y-14033714D02*
X12513096Y-14024190D01*
X12513096Y-14024190D02*
X12484524Y-14024190D01*
X12484524Y-14024190D02*
X12465476Y-14033714D01*
X12465476Y-14033714D02*
X12455953Y-14043238D01*
X12665476Y-14157524D02*
X12646429Y-14148000D01*
X12646429Y-14148000D02*
X12636905Y-14138476D01*
X12636905Y-14138476D02*
X12627381Y-14119428D01*
X12627381Y-14119428D02*
X12627381Y-14062286D01*
X12627381Y-14062286D02*
X12636905Y-14043238D01*
X12636905Y-14043238D02*
X12646429Y-14033714D01*
X12646429Y-14033714D02*
X12665476Y-14024190D01*
X12665476Y-14024190D02*
X12694048Y-14024190D01*
X12694048Y-14024190D02*
X12713096Y-14033714D01*
X12713096Y-14033714D02*
X12722619Y-14043238D01*
X12722619Y-14043238D02*
X12732143Y-14062286D01*
X12732143Y-14062286D02*
X12732143Y-14119428D01*
X12732143Y-14119428D02*
X12722619Y-14138476D01*
X12722619Y-14138476D02*
X12713096Y-14148000D01*
X12713096Y-14148000D02*
X12694048Y-14157524D01*
X12694048Y-14157524D02*
X12665476Y-14157524D01*
X12846429Y-14157524D02*
X12827381Y-14148000D01*
X12827381Y-14148000D02*
X12817857Y-14128952D01*
X12817857Y-14128952D02*
X12817857Y-13957524D01*
X12998810Y-14148000D02*
X12979762Y-14157524D01*
X12979762Y-14157524D02*
X12941667Y-14157524D01*
X12941667Y-14157524D02*
X12922619Y-14148000D01*
X12922619Y-14148000D02*
X12913096Y-14128952D01*
X12913096Y-14128952D02*
X12913096Y-14052762D01*
X12913096Y-14052762D02*
X12922619Y-14033714D01*
X12922619Y-14033714D02*
X12941667Y-14024190D01*
X12941667Y-14024190D02*
X12979762Y-14024190D01*
X12979762Y-14024190D02*
X12998810Y-14033714D01*
X12998810Y-14033714D02*
X13008334Y-14052762D01*
X13008334Y-14052762D02*
X13008334Y-14071809D01*
X13008334Y-14071809D02*
X12913096Y-14090857D01*
X13084524Y-14148000D02*
X13103572Y-14157524D01*
X13103572Y-14157524D02*
X13141667Y-14157524D01*
X13141667Y-14157524D02*
X13160715Y-14148000D01*
X13160715Y-14148000D02*
X13170238Y-14128952D01*
X13170238Y-14128952D02*
X13170238Y-14119428D01*
X13170238Y-14119428D02*
X13160715Y-14100381D01*
X13160715Y-14100381D02*
X13141667Y-14090857D01*
X13141667Y-14090857D02*
X13113096Y-14090857D01*
X13113096Y-14090857D02*
X13094048Y-14081333D01*
X13094048Y-14081333D02*
X13084524Y-14062286D01*
X13084524Y-14062286D02*
X13084524Y-14052762D01*
X13084524Y-14052762D02*
X13094048Y-14033714D01*
X13094048Y-14033714D02*
X13113096Y-14024190D01*
X13113096Y-14024190D02*
X13141667Y-14024190D01*
X13141667Y-14024190D02*
X13160715Y-14033714D01*
X13236905Y-14233714D02*
X13246429Y-14224190D01*
X13246429Y-14224190D02*
X13265477Y-14195619D01*
X13265477Y-14195619D02*
X13275000Y-14176571D01*
X13275000Y-14176571D02*
X13284524Y-14148000D01*
X13284524Y-14148000D02*
X13294048Y-14100381D01*
X13294048Y-14100381D02*
X13294048Y-14062286D01*
X13294048Y-14062286D02*
X13284524Y-14014667D01*
X13284524Y-14014667D02*
X13275000Y-13986095D01*
X13275000Y-13986095D02*
X13265477Y-13967048D01*
X13265477Y-13967048D02*
X13246429Y-13938476D01*
X13246429Y-13938476D02*
X13236905Y-13928952D01*
X13598810Y-14233714D02*
X13589286Y-14224190D01*
X13589286Y-14224190D02*
X13570238Y-14195619D01*
X13570238Y-14195619D02*
X13560715Y-14176571D01*
X13560715Y-14176571D02*
X13551191Y-14148000D01*
X13551191Y-14148000D02*
X13541667Y-14100381D01*
X13541667Y-14100381D02*
X13541667Y-14062286D01*
X13541667Y-14062286D02*
X13551191Y-14014667D01*
X13551191Y-14014667D02*
X13560715Y-13986095D01*
X13560715Y-13986095D02*
X13570238Y-13967048D01*
X13570238Y-13967048D02*
X13589286Y-13938476D01*
X13589286Y-13938476D02*
X13598810Y-13928952D01*
X13675000Y-14024190D02*
X13675000Y-14157524D01*
X13675000Y-14043238D02*
X13684524Y-14033714D01*
X13684524Y-14033714D02*
X13703572Y-14024190D01*
X13703572Y-14024190D02*
X13732143Y-14024190D01*
X13732143Y-14024190D02*
X13751191Y-14033714D01*
X13751191Y-14033714D02*
X13760715Y-14052762D01*
X13760715Y-14052762D02*
X13760715Y-14157524D01*
X13884524Y-14157524D02*
X13865477Y-14148000D01*
X13865477Y-14148000D02*
X13855953Y-14138476D01*
X13855953Y-14138476D02*
X13846429Y-14119428D01*
X13846429Y-14119428D02*
X13846429Y-14062286D01*
X13846429Y-14062286D02*
X13855953Y-14043238D01*
X13855953Y-14043238D02*
X13865477Y-14033714D01*
X13865477Y-14033714D02*
X13884524Y-14024190D01*
X13884524Y-14024190D02*
X13913096Y-14024190D01*
X13913096Y-14024190D02*
X13932143Y-14033714D01*
X13932143Y-14033714D02*
X13941667Y-14043238D01*
X13941667Y-14043238D02*
X13951191Y-14062286D01*
X13951191Y-14062286D02*
X13951191Y-14119428D01*
X13951191Y-14119428D02*
X13941667Y-14138476D01*
X13941667Y-14138476D02*
X13932143Y-14148000D01*
X13932143Y-14148000D02*
X13913096Y-14157524D01*
X13913096Y-14157524D02*
X13884524Y-14157524D01*
X14008334Y-14024190D02*
X14084524Y-14024190D01*
X14036905Y-13957524D02*
X14036905Y-14128952D01*
X14036905Y-14128952D02*
X14046429Y-14148000D01*
X14046429Y-14148000D02*
X14065477Y-14157524D01*
X14065477Y-14157524D02*
X14084524Y-14157524D01*
X14303572Y-14024190D02*
X14303572Y-14224190D01*
X14303572Y-14033714D02*
X14322619Y-14024190D01*
X14322619Y-14024190D02*
X14360715Y-14024190D01*
X14360715Y-14024190D02*
X14379762Y-14033714D01*
X14379762Y-14033714D02*
X14389286Y-14043238D01*
X14389286Y-14043238D02*
X14398810Y-14062286D01*
X14398810Y-14062286D02*
X14398810Y-14119428D01*
X14398810Y-14119428D02*
X14389286Y-14138476D01*
X14389286Y-14138476D02*
X14379762Y-14148000D01*
X14379762Y-14148000D02*
X14360715Y-14157524D01*
X14360715Y-14157524D02*
X14322619Y-14157524D01*
X14322619Y-14157524D02*
X14303572Y-14148000D01*
X14513096Y-14157524D02*
X14494048Y-14148000D01*
X14494048Y-14148000D02*
X14484524Y-14128952D01*
X14484524Y-14128952D02*
X14484524Y-13957524D01*
X14675000Y-14157524D02*
X14675000Y-14052762D01*
X14675000Y-14052762D02*
X14665477Y-14033714D01*
X14665477Y-14033714D02*
X14646429Y-14024190D01*
X14646429Y-14024190D02*
X14608334Y-14024190D01*
X14608334Y-14024190D02*
X14589286Y-14033714D01*
X14675000Y-14148000D02*
X14655953Y-14157524D01*
X14655953Y-14157524D02*
X14608334Y-14157524D01*
X14608334Y-14157524D02*
X14589286Y-14148000D01*
X14589286Y-14148000D02*
X14579762Y-14128952D01*
X14579762Y-14128952D02*
X14579762Y-14109905D01*
X14579762Y-14109905D02*
X14589286Y-14090857D01*
X14589286Y-14090857D02*
X14608334Y-14081333D01*
X14608334Y-14081333D02*
X14655953Y-14081333D01*
X14655953Y-14081333D02*
X14675000Y-14071809D01*
X14741667Y-14024190D02*
X14817858Y-14024190D01*
X14770239Y-13957524D02*
X14770239Y-14128952D01*
X14770239Y-14128952D02*
X14779762Y-14148000D01*
X14779762Y-14148000D02*
X14798810Y-14157524D01*
X14798810Y-14157524D02*
X14817858Y-14157524D01*
X14960715Y-14148000D02*
X14941667Y-14157524D01*
X14941667Y-14157524D02*
X14903572Y-14157524D01*
X14903572Y-14157524D02*
X14884524Y-14148000D01*
X14884524Y-14148000D02*
X14875000Y-14128952D01*
X14875000Y-14128952D02*
X14875000Y-14052762D01*
X14875000Y-14052762D02*
X14884524Y-14033714D01*
X14884524Y-14033714D02*
X14903572Y-14024190D01*
X14903572Y-14024190D02*
X14941667Y-14024190D01*
X14941667Y-14024190D02*
X14960715Y-14033714D01*
X14960715Y-14033714D02*
X14970239Y-14052762D01*
X14970239Y-14052762D02*
X14970239Y-14071809D01*
X14970239Y-14071809D02*
X14875000Y-14090857D01*
X15141667Y-14157524D02*
X15141667Y-13957524D01*
X15141667Y-14148000D02*
X15122620Y-14157524D01*
X15122620Y-14157524D02*
X15084524Y-14157524D01*
X15084524Y-14157524D02*
X15065477Y-14148000D01*
X15065477Y-14148000D02*
X15055953Y-14138476D01*
X15055953Y-14138476D02*
X15046429Y-14119428D01*
X15046429Y-14119428D02*
X15046429Y-14062286D01*
X15046429Y-14062286D02*
X15055953Y-14043238D01*
X15055953Y-14043238D02*
X15065477Y-14033714D01*
X15065477Y-14033714D02*
X15084524Y-14024190D01*
X15084524Y-14024190D02*
X15122620Y-14024190D01*
X15122620Y-14024190D02*
X15141667Y-14033714D01*
X15217858Y-14233714D02*
X15227381Y-14224190D01*
X15227381Y-14224190D02*
X15246429Y-14195619D01*
X15246429Y-14195619D02*
X15255953Y-14176571D01*
X15255953Y-14176571D02*
X15265477Y-14148000D01*
X15265477Y-14148000D02*
X15275000Y-14100381D01*
X15275000Y-14100381D02*
X15275000Y-14062286D01*
X15275000Y-14062286D02*
X15265477Y-14014667D01*
X15265477Y-14014667D02*
X15255953Y-13986095D01*
X15255953Y-13986095D02*
X15246429Y-13967048D01*
X15246429Y-13967048D02*
X15227381Y-13938476D01*
X15227381Y-13938476D02*
X15217858Y-13928952D01*
D13*
X8475000Y-14329000D02*
G75*
G03*
X8475000Y-14329000I-47500J0D01*
G01*
D11*
X8760714Y-14221524D02*
X8779762Y-14221524D01*
X8779762Y-14221524D02*
X8798810Y-14231048D01*
X8798810Y-14231048D02*
X8808333Y-14240571D01*
X8808333Y-14240571D02*
X8817857Y-14259619D01*
X8817857Y-14259619D02*
X8827381Y-14297714D01*
X8827381Y-14297714D02*
X8827381Y-14345333D01*
X8827381Y-14345333D02*
X8817857Y-14383428D01*
X8817857Y-14383428D02*
X8808333Y-14402476D01*
X8808333Y-14402476D02*
X8798810Y-14412000D01*
X8798810Y-14412000D02*
X8779762Y-14421524D01*
X8779762Y-14421524D02*
X8760714Y-14421524D01*
X8760714Y-14421524D02*
X8741667Y-14412000D01*
X8741667Y-14412000D02*
X8732143Y-14402476D01*
X8732143Y-14402476D02*
X8722619Y-14383428D01*
X8722619Y-14383428D02*
X8713095Y-14345333D01*
X8713095Y-14345333D02*
X8713095Y-14297714D01*
X8713095Y-14297714D02*
X8722619Y-14259619D01*
X8722619Y-14259619D02*
X8732143Y-14240571D01*
X8732143Y-14240571D02*
X8741667Y-14231048D01*
X8741667Y-14231048D02*
X8760714Y-14221524D01*
X8913095Y-14402476D02*
X8922619Y-14412000D01*
X8922619Y-14412000D02*
X8913095Y-14421524D01*
X8913095Y-14421524D02*
X8903571Y-14412000D01*
X8903571Y-14412000D02*
X8913095Y-14402476D01*
X8913095Y-14402476D02*
X8913095Y-14421524D01*
X9017857Y-14421524D02*
X9055952Y-14421524D01*
X9055952Y-14421524D02*
X9075000Y-14412000D01*
X9075000Y-14412000D02*
X9084524Y-14402476D01*
X9084524Y-14402476D02*
X9103571Y-14373905D01*
X9103571Y-14373905D02*
X9113095Y-14335809D01*
X9113095Y-14335809D02*
X9113095Y-14259619D01*
X9113095Y-14259619D02*
X9103571Y-14240571D01*
X9103571Y-14240571D02*
X9094048Y-14231048D01*
X9094048Y-14231048D02*
X9075000Y-14221524D01*
X9075000Y-14221524D02*
X9036905Y-14221524D01*
X9036905Y-14221524D02*
X9017857Y-14231048D01*
X9017857Y-14231048D02*
X9008333Y-14240571D01*
X9008333Y-14240571D02*
X8998810Y-14259619D01*
X8998810Y-14259619D02*
X8998810Y-14307238D01*
X8998810Y-14307238D02*
X9008333Y-14326286D01*
X9008333Y-14326286D02*
X9017857Y-14335809D01*
X9017857Y-14335809D02*
X9036905Y-14345333D01*
X9036905Y-14345333D02*
X9075000Y-14345333D01*
X9075000Y-14345333D02*
X9094048Y-14335809D01*
X9094048Y-14335809D02*
X9103571Y-14326286D01*
X9103571Y-14326286D02*
X9113095Y-14307238D01*
X9294048Y-14221524D02*
X9198810Y-14221524D01*
X9198810Y-14221524D02*
X9189286Y-14316762D01*
X9189286Y-14316762D02*
X9198810Y-14307238D01*
X9198810Y-14307238D02*
X9217857Y-14297714D01*
X9217857Y-14297714D02*
X9265476Y-14297714D01*
X9265476Y-14297714D02*
X9284524Y-14307238D01*
X9284524Y-14307238D02*
X9294048Y-14316762D01*
X9294048Y-14316762D02*
X9303571Y-14335809D01*
X9303571Y-14335809D02*
X9303571Y-14383428D01*
X9303571Y-14383428D02*
X9294048Y-14402476D01*
X9294048Y-14402476D02*
X9284524Y-14412000D01*
X9284524Y-14412000D02*
X9265476Y-14421524D01*
X9265476Y-14421524D02*
X9217857Y-14421524D01*
X9217857Y-14421524D02*
X9198810Y-14412000D01*
X9198810Y-14412000D02*
X9189286Y-14402476D01*
X9427381Y-14221524D02*
X9446429Y-14221524D01*
X9446429Y-14221524D02*
X9465476Y-14231048D01*
X9465476Y-14231048D02*
X9475000Y-14240571D01*
X9475000Y-14240571D02*
X9484524Y-14259619D01*
X9484524Y-14259619D02*
X9494048Y-14297714D01*
X9494048Y-14297714D02*
X9494048Y-14345333D01*
X9494048Y-14345333D02*
X9484524Y-14383428D01*
X9484524Y-14383428D02*
X9475000Y-14402476D01*
X9475000Y-14402476D02*
X9465476Y-14412000D01*
X9465476Y-14412000D02*
X9446429Y-14421524D01*
X9446429Y-14421524D02*
X9427381Y-14421524D01*
X9427381Y-14421524D02*
X9408333Y-14412000D01*
X9408333Y-14412000D02*
X9398810Y-14402476D01*
X9398810Y-14402476D02*
X9389286Y-14383428D01*
X9389286Y-14383428D02*
X9379762Y-14345333D01*
X9379762Y-14345333D02*
X9379762Y-14297714D01*
X9379762Y-14297714D02*
X9389286Y-14259619D01*
X9389286Y-14259619D02*
X9398810Y-14240571D01*
X9398810Y-14240571D02*
X9408333Y-14231048D01*
X9408333Y-14231048D02*
X9427381Y-14221524D01*
X9579762Y-14421524D02*
X9579762Y-14288190D01*
X9579762Y-14307238D02*
X9589286Y-14297714D01*
X9589286Y-14297714D02*
X9608333Y-14288190D01*
X9608333Y-14288190D02*
X9636905Y-14288190D01*
X9636905Y-14288190D02*
X9655952Y-14297714D01*
X9655952Y-14297714D02*
X9665476Y-14316762D01*
X9665476Y-14316762D02*
X9665476Y-14421524D01*
X9665476Y-14316762D02*
X9675000Y-14297714D01*
X9675000Y-14297714D02*
X9694048Y-14288190D01*
X9694048Y-14288190D02*
X9722619Y-14288190D01*
X9722619Y-14288190D02*
X9741667Y-14297714D01*
X9741667Y-14297714D02*
X9751191Y-14316762D01*
X9751191Y-14316762D02*
X9751191Y-14421524D01*
X9846429Y-14421524D02*
X9846429Y-14288190D01*
X9846429Y-14307238D02*
X9855952Y-14297714D01*
X9855952Y-14297714D02*
X9875000Y-14288190D01*
X9875000Y-14288190D02*
X9903572Y-14288190D01*
X9903572Y-14288190D02*
X9922619Y-14297714D01*
X9922619Y-14297714D02*
X9932143Y-14316762D01*
X9932143Y-14316762D02*
X9932143Y-14421524D01*
X9932143Y-14316762D02*
X9941667Y-14297714D01*
X9941667Y-14297714D02*
X9960714Y-14288190D01*
X9960714Y-14288190D02*
X9989286Y-14288190D01*
X9989286Y-14288190D02*
X10008333Y-14297714D01*
X10008333Y-14297714D02*
X10017857Y-14316762D01*
X10017857Y-14316762D02*
X10017857Y-14421524D01*
X10408333Y-14212000D02*
X10236905Y-14469143D01*
X10665476Y-14221524D02*
X10684524Y-14221524D01*
X10684524Y-14221524D02*
X10703572Y-14231048D01*
X10703572Y-14231048D02*
X10713095Y-14240571D01*
X10713095Y-14240571D02*
X10722619Y-14259619D01*
X10722619Y-14259619D02*
X10732143Y-14297714D01*
X10732143Y-14297714D02*
X10732143Y-14345333D01*
X10732143Y-14345333D02*
X10722619Y-14383428D01*
X10722619Y-14383428D02*
X10713095Y-14402476D01*
X10713095Y-14402476D02*
X10703572Y-14412000D01*
X10703572Y-14412000D02*
X10684524Y-14421524D01*
X10684524Y-14421524D02*
X10665476Y-14421524D01*
X10665476Y-14421524D02*
X10646429Y-14412000D01*
X10646429Y-14412000D02*
X10636905Y-14402476D01*
X10636905Y-14402476D02*
X10627381Y-14383428D01*
X10627381Y-14383428D02*
X10617857Y-14345333D01*
X10617857Y-14345333D02*
X10617857Y-14297714D01*
X10617857Y-14297714D02*
X10627381Y-14259619D01*
X10627381Y-14259619D02*
X10636905Y-14240571D01*
X10636905Y-14240571D02*
X10646429Y-14231048D01*
X10646429Y-14231048D02*
X10665476Y-14221524D01*
X10817857Y-14402476D02*
X10827381Y-14412000D01*
X10827381Y-14412000D02*
X10817857Y-14421524D01*
X10817857Y-14421524D02*
X10808334Y-14412000D01*
X10808334Y-14412000D02*
X10817857Y-14402476D01*
X10817857Y-14402476D02*
X10817857Y-14421524D01*
X10951191Y-14221524D02*
X10970238Y-14221524D01*
X10970238Y-14221524D02*
X10989286Y-14231048D01*
X10989286Y-14231048D02*
X10998810Y-14240571D01*
X10998810Y-14240571D02*
X11008334Y-14259619D01*
X11008334Y-14259619D02*
X11017857Y-14297714D01*
X11017857Y-14297714D02*
X11017857Y-14345333D01*
X11017857Y-14345333D02*
X11008334Y-14383428D01*
X11008334Y-14383428D02*
X10998810Y-14402476D01*
X10998810Y-14402476D02*
X10989286Y-14412000D01*
X10989286Y-14412000D02*
X10970238Y-14421524D01*
X10970238Y-14421524D02*
X10951191Y-14421524D01*
X10951191Y-14421524D02*
X10932143Y-14412000D01*
X10932143Y-14412000D02*
X10922619Y-14402476D01*
X10922619Y-14402476D02*
X10913095Y-14383428D01*
X10913095Y-14383428D02*
X10903572Y-14345333D01*
X10903572Y-14345333D02*
X10903572Y-14297714D01*
X10903572Y-14297714D02*
X10913095Y-14259619D01*
X10913095Y-14259619D02*
X10922619Y-14240571D01*
X10922619Y-14240571D02*
X10932143Y-14231048D01*
X10932143Y-14231048D02*
X10951191Y-14221524D01*
X11084524Y-14221524D02*
X11208333Y-14221524D01*
X11208333Y-14221524D02*
X11141667Y-14297714D01*
X11141667Y-14297714D02*
X11170238Y-14297714D01*
X11170238Y-14297714D02*
X11189286Y-14307238D01*
X11189286Y-14307238D02*
X11198810Y-14316762D01*
X11198810Y-14316762D02*
X11208333Y-14335809D01*
X11208333Y-14335809D02*
X11208333Y-14383428D01*
X11208333Y-14383428D02*
X11198810Y-14402476D01*
X11198810Y-14402476D02*
X11189286Y-14412000D01*
X11189286Y-14412000D02*
X11170238Y-14421524D01*
X11170238Y-14421524D02*
X11113095Y-14421524D01*
X11113095Y-14421524D02*
X11094048Y-14412000D01*
X11094048Y-14412000D02*
X11084524Y-14402476D01*
X11275000Y-14221524D02*
X11408333Y-14221524D01*
X11408333Y-14221524D02*
X11322619Y-14421524D01*
X11570238Y-14288190D02*
X11570238Y-14421524D01*
X11522619Y-14212000D02*
X11475000Y-14354857D01*
X11475000Y-14354857D02*
X11598810Y-14354857D01*
X11665476Y-14221524D02*
X11665476Y-14259619D01*
X11741667Y-14221524D02*
X11741667Y-14259619D01*
X12036905Y-14497714D02*
X12027381Y-14488190D01*
X12027381Y-14488190D02*
X12008334Y-14459619D01*
X12008334Y-14459619D02*
X11998810Y-14440571D01*
X11998810Y-14440571D02*
X11989286Y-14412000D01*
X11989286Y-14412000D02*
X11979762Y-14364381D01*
X11979762Y-14364381D02*
X11979762Y-14326286D01*
X11979762Y-14326286D02*
X11989286Y-14278667D01*
X11989286Y-14278667D02*
X11998810Y-14250095D01*
X11998810Y-14250095D02*
X12008334Y-14231048D01*
X12008334Y-14231048D02*
X12027381Y-14202476D01*
X12027381Y-14202476D02*
X12036905Y-14192952D01*
X12103572Y-14240571D02*
X12113095Y-14231048D01*
X12113095Y-14231048D02*
X12132143Y-14221524D01*
X12132143Y-14221524D02*
X12179762Y-14221524D01*
X12179762Y-14221524D02*
X12198810Y-14231048D01*
X12198810Y-14231048D02*
X12208334Y-14240571D01*
X12208334Y-14240571D02*
X12217857Y-14259619D01*
X12217857Y-14259619D02*
X12217857Y-14278667D01*
X12217857Y-14278667D02*
X12208334Y-14307238D01*
X12208334Y-14307238D02*
X12094048Y-14421524D01*
X12094048Y-14421524D02*
X12217857Y-14421524D01*
X12455953Y-14421524D02*
X12455953Y-14221524D01*
X12541667Y-14421524D02*
X12541667Y-14316762D01*
X12541667Y-14316762D02*
X12532143Y-14297714D01*
X12532143Y-14297714D02*
X12513096Y-14288190D01*
X12513096Y-14288190D02*
X12484524Y-14288190D01*
X12484524Y-14288190D02*
X12465476Y-14297714D01*
X12465476Y-14297714D02*
X12455953Y-14307238D01*
X12665476Y-14421524D02*
X12646429Y-14412000D01*
X12646429Y-14412000D02*
X12636905Y-14402476D01*
X12636905Y-14402476D02*
X12627381Y-14383428D01*
X12627381Y-14383428D02*
X12627381Y-14326286D01*
X12627381Y-14326286D02*
X12636905Y-14307238D01*
X12636905Y-14307238D02*
X12646429Y-14297714D01*
X12646429Y-14297714D02*
X12665476Y-14288190D01*
X12665476Y-14288190D02*
X12694048Y-14288190D01*
X12694048Y-14288190D02*
X12713096Y-14297714D01*
X12713096Y-14297714D02*
X12722619Y-14307238D01*
X12722619Y-14307238D02*
X12732143Y-14326286D01*
X12732143Y-14326286D02*
X12732143Y-14383428D01*
X12732143Y-14383428D02*
X12722619Y-14402476D01*
X12722619Y-14402476D02*
X12713096Y-14412000D01*
X12713096Y-14412000D02*
X12694048Y-14421524D01*
X12694048Y-14421524D02*
X12665476Y-14421524D01*
X12846429Y-14421524D02*
X12827381Y-14412000D01*
X12827381Y-14412000D02*
X12817857Y-14392952D01*
X12817857Y-14392952D02*
X12817857Y-14221524D01*
X12998810Y-14412000D02*
X12979762Y-14421524D01*
X12979762Y-14421524D02*
X12941667Y-14421524D01*
X12941667Y-14421524D02*
X12922619Y-14412000D01*
X12922619Y-14412000D02*
X12913096Y-14392952D01*
X12913096Y-14392952D02*
X12913096Y-14316762D01*
X12913096Y-14316762D02*
X12922619Y-14297714D01*
X12922619Y-14297714D02*
X12941667Y-14288190D01*
X12941667Y-14288190D02*
X12979762Y-14288190D01*
X12979762Y-14288190D02*
X12998810Y-14297714D01*
X12998810Y-14297714D02*
X13008334Y-14316762D01*
X13008334Y-14316762D02*
X13008334Y-14335809D01*
X13008334Y-14335809D02*
X12913096Y-14354857D01*
X13084524Y-14412000D02*
X13103572Y-14421524D01*
X13103572Y-14421524D02*
X13141667Y-14421524D01*
X13141667Y-14421524D02*
X13160715Y-14412000D01*
X13160715Y-14412000D02*
X13170238Y-14392952D01*
X13170238Y-14392952D02*
X13170238Y-14383428D01*
X13170238Y-14383428D02*
X13160715Y-14364381D01*
X13160715Y-14364381D02*
X13141667Y-14354857D01*
X13141667Y-14354857D02*
X13113096Y-14354857D01*
X13113096Y-14354857D02*
X13094048Y-14345333D01*
X13094048Y-14345333D02*
X13084524Y-14326286D01*
X13084524Y-14326286D02*
X13084524Y-14316762D01*
X13084524Y-14316762D02*
X13094048Y-14297714D01*
X13094048Y-14297714D02*
X13113096Y-14288190D01*
X13113096Y-14288190D02*
X13141667Y-14288190D01*
X13141667Y-14288190D02*
X13160715Y-14297714D01*
X13236905Y-14497714D02*
X13246429Y-14488190D01*
X13246429Y-14488190D02*
X13265477Y-14459619D01*
X13265477Y-14459619D02*
X13275000Y-14440571D01*
X13275000Y-14440571D02*
X13284524Y-14412000D01*
X13284524Y-14412000D02*
X13294048Y-14364381D01*
X13294048Y-14364381D02*
X13294048Y-14326286D01*
X13294048Y-14326286D02*
X13284524Y-14278667D01*
X13284524Y-14278667D02*
X13275000Y-14250095D01*
X13275000Y-14250095D02*
X13265477Y-14231048D01*
X13265477Y-14231048D02*
X13246429Y-14202476D01*
X13246429Y-14202476D02*
X13236905Y-14192952D01*
X13598810Y-14497714D02*
X13589286Y-14488190D01*
X13589286Y-14488190D02*
X13570238Y-14459619D01*
X13570238Y-14459619D02*
X13560715Y-14440571D01*
X13560715Y-14440571D02*
X13551191Y-14412000D01*
X13551191Y-14412000D02*
X13541667Y-14364381D01*
X13541667Y-14364381D02*
X13541667Y-14326286D01*
X13541667Y-14326286D02*
X13551191Y-14278667D01*
X13551191Y-14278667D02*
X13560715Y-14250095D01*
X13560715Y-14250095D02*
X13570238Y-14231048D01*
X13570238Y-14231048D02*
X13589286Y-14202476D01*
X13589286Y-14202476D02*
X13598810Y-14192952D01*
X13675000Y-14288190D02*
X13675000Y-14421524D01*
X13675000Y-14307238D02*
X13684524Y-14297714D01*
X13684524Y-14297714D02*
X13703572Y-14288190D01*
X13703572Y-14288190D02*
X13732143Y-14288190D01*
X13732143Y-14288190D02*
X13751191Y-14297714D01*
X13751191Y-14297714D02*
X13760715Y-14316762D01*
X13760715Y-14316762D02*
X13760715Y-14421524D01*
X13884524Y-14421524D02*
X13865477Y-14412000D01*
X13865477Y-14412000D02*
X13855953Y-14402476D01*
X13855953Y-14402476D02*
X13846429Y-14383428D01*
X13846429Y-14383428D02*
X13846429Y-14326286D01*
X13846429Y-14326286D02*
X13855953Y-14307238D01*
X13855953Y-14307238D02*
X13865477Y-14297714D01*
X13865477Y-14297714D02*
X13884524Y-14288190D01*
X13884524Y-14288190D02*
X13913096Y-14288190D01*
X13913096Y-14288190D02*
X13932143Y-14297714D01*
X13932143Y-14297714D02*
X13941667Y-14307238D01*
X13941667Y-14307238D02*
X13951191Y-14326286D01*
X13951191Y-14326286D02*
X13951191Y-14383428D01*
X13951191Y-14383428D02*
X13941667Y-14402476D01*
X13941667Y-14402476D02*
X13932143Y-14412000D01*
X13932143Y-14412000D02*
X13913096Y-14421524D01*
X13913096Y-14421524D02*
X13884524Y-14421524D01*
X14008334Y-14288190D02*
X14084524Y-14288190D01*
X14036905Y-14221524D02*
X14036905Y-14392952D01*
X14036905Y-14392952D02*
X14046429Y-14412000D01*
X14046429Y-14412000D02*
X14065477Y-14421524D01*
X14065477Y-14421524D02*
X14084524Y-14421524D01*
X14303572Y-14288190D02*
X14303572Y-14488190D01*
X14303572Y-14297714D02*
X14322619Y-14288190D01*
X14322619Y-14288190D02*
X14360715Y-14288190D01*
X14360715Y-14288190D02*
X14379762Y-14297714D01*
X14379762Y-14297714D02*
X14389286Y-14307238D01*
X14389286Y-14307238D02*
X14398810Y-14326286D01*
X14398810Y-14326286D02*
X14398810Y-14383428D01*
X14398810Y-14383428D02*
X14389286Y-14402476D01*
X14389286Y-14402476D02*
X14379762Y-14412000D01*
X14379762Y-14412000D02*
X14360715Y-14421524D01*
X14360715Y-14421524D02*
X14322619Y-14421524D01*
X14322619Y-14421524D02*
X14303572Y-14412000D01*
X14513096Y-14421524D02*
X14494048Y-14412000D01*
X14494048Y-14412000D02*
X14484524Y-14392952D01*
X14484524Y-14392952D02*
X14484524Y-14221524D01*
X14675000Y-14421524D02*
X14675000Y-14316762D01*
X14675000Y-14316762D02*
X14665477Y-14297714D01*
X14665477Y-14297714D02*
X14646429Y-14288190D01*
X14646429Y-14288190D02*
X14608334Y-14288190D01*
X14608334Y-14288190D02*
X14589286Y-14297714D01*
X14675000Y-14412000D02*
X14655953Y-14421524D01*
X14655953Y-14421524D02*
X14608334Y-14421524D01*
X14608334Y-14421524D02*
X14589286Y-14412000D01*
X14589286Y-14412000D02*
X14579762Y-14392952D01*
X14579762Y-14392952D02*
X14579762Y-14373905D01*
X14579762Y-14373905D02*
X14589286Y-14354857D01*
X14589286Y-14354857D02*
X14608334Y-14345333D01*
X14608334Y-14345333D02*
X14655953Y-14345333D01*
X14655953Y-14345333D02*
X14675000Y-14335809D01*
X14741667Y-14288190D02*
X14817858Y-14288190D01*
X14770239Y-14221524D02*
X14770239Y-14392952D01*
X14770239Y-14392952D02*
X14779762Y-14412000D01*
X14779762Y-14412000D02*
X14798810Y-14421524D01*
X14798810Y-14421524D02*
X14817858Y-14421524D01*
X14960715Y-14412000D02*
X14941667Y-14421524D01*
X14941667Y-14421524D02*
X14903572Y-14421524D01*
X14903572Y-14421524D02*
X14884524Y-14412000D01*
X14884524Y-14412000D02*
X14875000Y-14392952D01*
X14875000Y-14392952D02*
X14875000Y-14316762D01*
X14875000Y-14316762D02*
X14884524Y-14297714D01*
X14884524Y-14297714D02*
X14903572Y-14288190D01*
X14903572Y-14288190D02*
X14941667Y-14288190D01*
X14941667Y-14288190D02*
X14960715Y-14297714D01*
X14960715Y-14297714D02*
X14970239Y-14316762D01*
X14970239Y-14316762D02*
X14970239Y-14335809D01*
X14970239Y-14335809D02*
X14875000Y-14354857D01*
X15141667Y-14421524D02*
X15141667Y-14221524D01*
X15141667Y-14412000D02*
X15122620Y-14421524D01*
X15122620Y-14421524D02*
X15084524Y-14421524D01*
X15084524Y-14421524D02*
X15065477Y-14412000D01*
X15065477Y-14412000D02*
X15055953Y-14402476D01*
X15055953Y-14402476D02*
X15046429Y-14383428D01*
X15046429Y-14383428D02*
X15046429Y-14326286D01*
X15046429Y-14326286D02*
X15055953Y-14307238D01*
X15055953Y-14307238D02*
X15065477Y-14297714D01*
X15065477Y-14297714D02*
X15084524Y-14288190D01*
X15084524Y-14288190D02*
X15122620Y-14288190D01*
X15122620Y-14288190D02*
X15141667Y-14297714D01*
X15217858Y-14497714D02*
X15227381Y-14488190D01*
X15227381Y-14488190D02*
X15246429Y-14459619D01*
X15246429Y-14459619D02*
X15255953Y-14440571D01*
X15255953Y-14440571D02*
X15265477Y-14412000D01*
X15265477Y-14412000D02*
X15275000Y-14364381D01*
X15275000Y-14364381D02*
X15275000Y-14326286D01*
X15275000Y-14326286D02*
X15265477Y-14278667D01*
X15265477Y-14278667D02*
X15255953Y-14250095D01*
X15255953Y-14250095D02*
X15246429Y-14231048D01*
X15246429Y-14231048D02*
X15227381Y-14202476D01*
X15227381Y-14202476D02*
X15217858Y-14192952D01*
X8375000Y-14493000D02*
X8375000Y-14693000D01*
X8275000Y-14593000D02*
X8475000Y-14593000D01*
X8713095Y-14504571D02*
X8722619Y-14495048D01*
X8722619Y-14495048D02*
X8741667Y-14485524D01*
X8741667Y-14485524D02*
X8789286Y-14485524D01*
X8789286Y-14485524D02*
X8808333Y-14495048D01*
X8808333Y-14495048D02*
X8817857Y-14504571D01*
X8817857Y-14504571D02*
X8827381Y-14523619D01*
X8827381Y-14523619D02*
X8827381Y-14542667D01*
X8827381Y-14542667D02*
X8817857Y-14571238D01*
X8817857Y-14571238D02*
X8703571Y-14685524D01*
X8703571Y-14685524D02*
X8827381Y-14685524D01*
X8913095Y-14666476D02*
X8922619Y-14676000D01*
X8922619Y-14676000D02*
X8913095Y-14685524D01*
X8913095Y-14685524D02*
X8903571Y-14676000D01*
X8903571Y-14676000D02*
X8913095Y-14666476D01*
X8913095Y-14666476D02*
X8913095Y-14685524D01*
X8989286Y-14485524D02*
X9122619Y-14485524D01*
X9122619Y-14485524D02*
X9036905Y-14685524D01*
X9236905Y-14485524D02*
X9255952Y-14485524D01*
X9255952Y-14485524D02*
X9275000Y-14495048D01*
X9275000Y-14495048D02*
X9284524Y-14504571D01*
X9284524Y-14504571D02*
X9294048Y-14523619D01*
X9294048Y-14523619D02*
X9303571Y-14561714D01*
X9303571Y-14561714D02*
X9303571Y-14609333D01*
X9303571Y-14609333D02*
X9294048Y-14647428D01*
X9294048Y-14647428D02*
X9284524Y-14666476D01*
X9284524Y-14666476D02*
X9275000Y-14676000D01*
X9275000Y-14676000D02*
X9255952Y-14685524D01*
X9255952Y-14685524D02*
X9236905Y-14685524D01*
X9236905Y-14685524D02*
X9217857Y-14676000D01*
X9217857Y-14676000D02*
X9208333Y-14666476D01*
X9208333Y-14666476D02*
X9198810Y-14647428D01*
X9198810Y-14647428D02*
X9189286Y-14609333D01*
X9189286Y-14609333D02*
X9189286Y-14561714D01*
X9189286Y-14561714D02*
X9198810Y-14523619D01*
X9198810Y-14523619D02*
X9208333Y-14504571D01*
X9208333Y-14504571D02*
X9217857Y-14495048D01*
X9217857Y-14495048D02*
X9236905Y-14485524D01*
X9427381Y-14485524D02*
X9446429Y-14485524D01*
X9446429Y-14485524D02*
X9465476Y-14495048D01*
X9465476Y-14495048D02*
X9475000Y-14504571D01*
X9475000Y-14504571D02*
X9484524Y-14523619D01*
X9484524Y-14523619D02*
X9494048Y-14561714D01*
X9494048Y-14561714D02*
X9494048Y-14609333D01*
X9494048Y-14609333D02*
X9484524Y-14647428D01*
X9484524Y-14647428D02*
X9475000Y-14666476D01*
X9475000Y-14666476D02*
X9465476Y-14676000D01*
X9465476Y-14676000D02*
X9446429Y-14685524D01*
X9446429Y-14685524D02*
X9427381Y-14685524D01*
X9427381Y-14685524D02*
X9408333Y-14676000D01*
X9408333Y-14676000D02*
X9398810Y-14666476D01*
X9398810Y-14666476D02*
X9389286Y-14647428D01*
X9389286Y-14647428D02*
X9379762Y-14609333D01*
X9379762Y-14609333D02*
X9379762Y-14561714D01*
X9379762Y-14561714D02*
X9389286Y-14523619D01*
X9389286Y-14523619D02*
X9398810Y-14504571D01*
X9398810Y-14504571D02*
X9408333Y-14495048D01*
X9408333Y-14495048D02*
X9427381Y-14485524D01*
X9579762Y-14685524D02*
X9579762Y-14552190D01*
X9579762Y-14571238D02*
X9589286Y-14561714D01*
X9589286Y-14561714D02*
X9608333Y-14552190D01*
X9608333Y-14552190D02*
X9636905Y-14552190D01*
X9636905Y-14552190D02*
X9655952Y-14561714D01*
X9655952Y-14561714D02*
X9665476Y-14580762D01*
X9665476Y-14580762D02*
X9665476Y-14685524D01*
X9665476Y-14580762D02*
X9675000Y-14561714D01*
X9675000Y-14561714D02*
X9694048Y-14552190D01*
X9694048Y-14552190D02*
X9722619Y-14552190D01*
X9722619Y-14552190D02*
X9741667Y-14561714D01*
X9741667Y-14561714D02*
X9751191Y-14580762D01*
X9751191Y-14580762D02*
X9751191Y-14685524D01*
X9846429Y-14685524D02*
X9846429Y-14552190D01*
X9846429Y-14571238D02*
X9855952Y-14561714D01*
X9855952Y-14561714D02*
X9875000Y-14552190D01*
X9875000Y-14552190D02*
X9903572Y-14552190D01*
X9903572Y-14552190D02*
X9922619Y-14561714D01*
X9922619Y-14561714D02*
X9932143Y-14580762D01*
X9932143Y-14580762D02*
X9932143Y-14685524D01*
X9932143Y-14580762D02*
X9941667Y-14561714D01*
X9941667Y-14561714D02*
X9960714Y-14552190D01*
X9960714Y-14552190D02*
X9989286Y-14552190D01*
X9989286Y-14552190D02*
X10008333Y-14561714D01*
X10008333Y-14561714D02*
X10017857Y-14580762D01*
X10017857Y-14580762D02*
X10017857Y-14685524D01*
X10408333Y-14476000D02*
X10236905Y-14733143D01*
X10665476Y-14485524D02*
X10684524Y-14485524D01*
X10684524Y-14485524D02*
X10703572Y-14495048D01*
X10703572Y-14495048D02*
X10713095Y-14504571D01*
X10713095Y-14504571D02*
X10722619Y-14523619D01*
X10722619Y-14523619D02*
X10732143Y-14561714D01*
X10732143Y-14561714D02*
X10732143Y-14609333D01*
X10732143Y-14609333D02*
X10722619Y-14647428D01*
X10722619Y-14647428D02*
X10713095Y-14666476D01*
X10713095Y-14666476D02*
X10703572Y-14676000D01*
X10703572Y-14676000D02*
X10684524Y-14685524D01*
X10684524Y-14685524D02*
X10665476Y-14685524D01*
X10665476Y-14685524D02*
X10646429Y-14676000D01*
X10646429Y-14676000D02*
X10636905Y-14666476D01*
X10636905Y-14666476D02*
X10627381Y-14647428D01*
X10627381Y-14647428D02*
X10617857Y-14609333D01*
X10617857Y-14609333D02*
X10617857Y-14561714D01*
X10617857Y-14561714D02*
X10627381Y-14523619D01*
X10627381Y-14523619D02*
X10636905Y-14504571D01*
X10636905Y-14504571D02*
X10646429Y-14495048D01*
X10646429Y-14495048D02*
X10665476Y-14485524D01*
X10817857Y-14666476D02*
X10827381Y-14676000D01*
X10827381Y-14676000D02*
X10817857Y-14685524D01*
X10817857Y-14685524D02*
X10808334Y-14676000D01*
X10808334Y-14676000D02*
X10817857Y-14666476D01*
X10817857Y-14666476D02*
X10817857Y-14685524D01*
X11017857Y-14685524D02*
X10903572Y-14685524D01*
X10960714Y-14685524D02*
X10960714Y-14485524D01*
X10960714Y-14485524D02*
X10941667Y-14514095D01*
X10941667Y-14514095D02*
X10922619Y-14533143D01*
X10922619Y-14533143D02*
X10903572Y-14542667D01*
X11141667Y-14485524D02*
X11160715Y-14485524D01*
X11160715Y-14485524D02*
X11179762Y-14495048D01*
X11179762Y-14495048D02*
X11189286Y-14504571D01*
X11189286Y-14504571D02*
X11198810Y-14523619D01*
X11198810Y-14523619D02*
X11208333Y-14561714D01*
X11208333Y-14561714D02*
X11208333Y-14609333D01*
X11208333Y-14609333D02*
X11198810Y-14647428D01*
X11198810Y-14647428D02*
X11189286Y-14666476D01*
X11189286Y-14666476D02*
X11179762Y-14676000D01*
X11179762Y-14676000D02*
X11160715Y-14685524D01*
X11160715Y-14685524D02*
X11141667Y-14685524D01*
X11141667Y-14685524D02*
X11122619Y-14676000D01*
X11122619Y-14676000D02*
X11113095Y-14666476D01*
X11113095Y-14666476D02*
X11103572Y-14647428D01*
X11103572Y-14647428D02*
X11094048Y-14609333D01*
X11094048Y-14609333D02*
X11094048Y-14561714D01*
X11094048Y-14561714D02*
X11103572Y-14523619D01*
X11103572Y-14523619D02*
X11113095Y-14504571D01*
X11113095Y-14504571D02*
X11122619Y-14495048D01*
X11122619Y-14495048D02*
X11141667Y-14485524D01*
X11379762Y-14485524D02*
X11341667Y-14485524D01*
X11341667Y-14485524D02*
X11322619Y-14495048D01*
X11322619Y-14495048D02*
X11313095Y-14504571D01*
X11313095Y-14504571D02*
X11294048Y-14533143D01*
X11294048Y-14533143D02*
X11284524Y-14571238D01*
X11284524Y-14571238D02*
X11284524Y-14647428D01*
X11284524Y-14647428D02*
X11294048Y-14666476D01*
X11294048Y-14666476D02*
X11303572Y-14676000D01*
X11303572Y-14676000D02*
X11322619Y-14685524D01*
X11322619Y-14685524D02*
X11360714Y-14685524D01*
X11360714Y-14685524D02*
X11379762Y-14676000D01*
X11379762Y-14676000D02*
X11389286Y-14666476D01*
X11389286Y-14666476D02*
X11398810Y-14647428D01*
X11398810Y-14647428D02*
X11398810Y-14599809D01*
X11398810Y-14599809D02*
X11389286Y-14580762D01*
X11389286Y-14580762D02*
X11379762Y-14571238D01*
X11379762Y-14571238D02*
X11360714Y-14561714D01*
X11360714Y-14561714D02*
X11322619Y-14561714D01*
X11322619Y-14561714D02*
X11303572Y-14571238D01*
X11303572Y-14571238D02*
X11294048Y-14580762D01*
X11294048Y-14580762D02*
X11284524Y-14599809D01*
X11465476Y-14485524D02*
X11589286Y-14485524D01*
X11589286Y-14485524D02*
X11522619Y-14561714D01*
X11522619Y-14561714D02*
X11551191Y-14561714D01*
X11551191Y-14561714D02*
X11570238Y-14571238D01*
X11570238Y-14571238D02*
X11579762Y-14580762D01*
X11579762Y-14580762D02*
X11589286Y-14599809D01*
X11589286Y-14599809D02*
X11589286Y-14647428D01*
X11589286Y-14647428D02*
X11579762Y-14666476D01*
X11579762Y-14666476D02*
X11570238Y-14676000D01*
X11570238Y-14676000D02*
X11551191Y-14685524D01*
X11551191Y-14685524D02*
X11494048Y-14685524D01*
X11494048Y-14685524D02*
X11475000Y-14676000D01*
X11475000Y-14676000D02*
X11465476Y-14666476D01*
X11665476Y-14485524D02*
X11665476Y-14523619D01*
X11741667Y-14485524D02*
X11741667Y-14523619D01*
X12036905Y-14761714D02*
X12027381Y-14752190D01*
X12027381Y-14752190D02*
X12008334Y-14723619D01*
X12008334Y-14723619D02*
X11998810Y-14704571D01*
X11998810Y-14704571D02*
X11989286Y-14676000D01*
X11989286Y-14676000D02*
X11979762Y-14628381D01*
X11979762Y-14628381D02*
X11979762Y-14590286D01*
X11979762Y-14590286D02*
X11989286Y-14542667D01*
X11989286Y-14542667D02*
X11998810Y-14514095D01*
X11998810Y-14514095D02*
X12008334Y-14495048D01*
X12008334Y-14495048D02*
X12027381Y-14466476D01*
X12027381Y-14466476D02*
X12036905Y-14456952D01*
X12208334Y-14485524D02*
X12113095Y-14485524D01*
X12113095Y-14485524D02*
X12103572Y-14580762D01*
X12103572Y-14580762D02*
X12113095Y-14571238D01*
X12113095Y-14571238D02*
X12132143Y-14561714D01*
X12132143Y-14561714D02*
X12179762Y-14561714D01*
X12179762Y-14561714D02*
X12198810Y-14571238D01*
X12198810Y-14571238D02*
X12208334Y-14580762D01*
X12208334Y-14580762D02*
X12217857Y-14599809D01*
X12217857Y-14599809D02*
X12217857Y-14647428D01*
X12217857Y-14647428D02*
X12208334Y-14666476D01*
X12208334Y-14666476D02*
X12198810Y-14676000D01*
X12198810Y-14676000D02*
X12179762Y-14685524D01*
X12179762Y-14685524D02*
X12132143Y-14685524D01*
X12132143Y-14685524D02*
X12113095Y-14676000D01*
X12113095Y-14676000D02*
X12103572Y-14666476D01*
X12455953Y-14685524D02*
X12455953Y-14485524D01*
X12541667Y-14685524D02*
X12541667Y-14580762D01*
X12541667Y-14580762D02*
X12532143Y-14561714D01*
X12532143Y-14561714D02*
X12513096Y-14552190D01*
X12513096Y-14552190D02*
X12484524Y-14552190D01*
X12484524Y-14552190D02*
X12465476Y-14561714D01*
X12465476Y-14561714D02*
X12455953Y-14571238D01*
X12665476Y-14685524D02*
X12646429Y-14676000D01*
X12646429Y-14676000D02*
X12636905Y-14666476D01*
X12636905Y-14666476D02*
X12627381Y-14647428D01*
X12627381Y-14647428D02*
X12627381Y-14590286D01*
X12627381Y-14590286D02*
X12636905Y-14571238D01*
X12636905Y-14571238D02*
X12646429Y-14561714D01*
X12646429Y-14561714D02*
X12665476Y-14552190D01*
X12665476Y-14552190D02*
X12694048Y-14552190D01*
X12694048Y-14552190D02*
X12713096Y-14561714D01*
X12713096Y-14561714D02*
X12722619Y-14571238D01*
X12722619Y-14571238D02*
X12732143Y-14590286D01*
X12732143Y-14590286D02*
X12732143Y-14647428D01*
X12732143Y-14647428D02*
X12722619Y-14666476D01*
X12722619Y-14666476D02*
X12713096Y-14676000D01*
X12713096Y-14676000D02*
X12694048Y-14685524D01*
X12694048Y-14685524D02*
X12665476Y-14685524D01*
X12846429Y-14685524D02*
X12827381Y-14676000D01*
X12827381Y-14676000D02*
X12817857Y-14656952D01*
X12817857Y-14656952D02*
X12817857Y-14485524D01*
X12998810Y-14676000D02*
X12979762Y-14685524D01*
X12979762Y-14685524D02*
X12941667Y-14685524D01*
X12941667Y-14685524D02*
X12922619Y-14676000D01*
X12922619Y-14676000D02*
X12913096Y-14656952D01*
X12913096Y-14656952D02*
X12913096Y-14580762D01*
X12913096Y-14580762D02*
X12922619Y-14561714D01*
X12922619Y-14561714D02*
X12941667Y-14552190D01*
X12941667Y-14552190D02*
X12979762Y-14552190D01*
X12979762Y-14552190D02*
X12998810Y-14561714D01*
X12998810Y-14561714D02*
X13008334Y-14580762D01*
X13008334Y-14580762D02*
X13008334Y-14599809D01*
X13008334Y-14599809D02*
X12913096Y-14618857D01*
X13084524Y-14676000D02*
X13103572Y-14685524D01*
X13103572Y-14685524D02*
X13141667Y-14685524D01*
X13141667Y-14685524D02*
X13160715Y-14676000D01*
X13160715Y-14676000D02*
X13170238Y-14656952D01*
X13170238Y-14656952D02*
X13170238Y-14647428D01*
X13170238Y-14647428D02*
X13160715Y-14628381D01*
X13160715Y-14628381D02*
X13141667Y-14618857D01*
X13141667Y-14618857D02*
X13113096Y-14618857D01*
X13113096Y-14618857D02*
X13094048Y-14609333D01*
X13094048Y-14609333D02*
X13084524Y-14590286D01*
X13084524Y-14590286D02*
X13084524Y-14580762D01*
X13084524Y-14580762D02*
X13094048Y-14561714D01*
X13094048Y-14561714D02*
X13113096Y-14552190D01*
X13113096Y-14552190D02*
X13141667Y-14552190D01*
X13141667Y-14552190D02*
X13160715Y-14561714D01*
X13236905Y-14761714D02*
X13246429Y-14752190D01*
X13246429Y-14752190D02*
X13265477Y-14723619D01*
X13265477Y-14723619D02*
X13275000Y-14704571D01*
X13275000Y-14704571D02*
X13284524Y-14676000D01*
X13284524Y-14676000D02*
X13294048Y-14628381D01*
X13294048Y-14628381D02*
X13294048Y-14590286D01*
X13294048Y-14590286D02*
X13284524Y-14542667D01*
X13284524Y-14542667D02*
X13275000Y-14514095D01*
X13275000Y-14514095D02*
X13265477Y-14495048D01*
X13265477Y-14495048D02*
X13246429Y-14466476D01*
X13246429Y-14466476D02*
X13236905Y-14456952D01*
X13598810Y-14761714D02*
X13589286Y-14752190D01*
X13589286Y-14752190D02*
X13570238Y-14723619D01*
X13570238Y-14723619D02*
X13560715Y-14704571D01*
X13560715Y-14704571D02*
X13551191Y-14676000D01*
X13551191Y-14676000D02*
X13541667Y-14628381D01*
X13541667Y-14628381D02*
X13541667Y-14590286D01*
X13541667Y-14590286D02*
X13551191Y-14542667D01*
X13551191Y-14542667D02*
X13560715Y-14514095D01*
X13560715Y-14514095D02*
X13570238Y-14495048D01*
X13570238Y-14495048D02*
X13589286Y-14466476D01*
X13589286Y-14466476D02*
X13598810Y-14456952D01*
X13675000Y-14552190D02*
X13675000Y-14685524D01*
X13675000Y-14571238D02*
X13684524Y-14561714D01*
X13684524Y-14561714D02*
X13703572Y-14552190D01*
X13703572Y-14552190D02*
X13732143Y-14552190D01*
X13732143Y-14552190D02*
X13751191Y-14561714D01*
X13751191Y-14561714D02*
X13760715Y-14580762D01*
X13760715Y-14580762D02*
X13760715Y-14685524D01*
X13884524Y-14685524D02*
X13865477Y-14676000D01*
X13865477Y-14676000D02*
X13855953Y-14666476D01*
X13855953Y-14666476D02*
X13846429Y-14647428D01*
X13846429Y-14647428D02*
X13846429Y-14590286D01*
X13846429Y-14590286D02*
X13855953Y-14571238D01*
X13855953Y-14571238D02*
X13865477Y-14561714D01*
X13865477Y-14561714D02*
X13884524Y-14552190D01*
X13884524Y-14552190D02*
X13913096Y-14552190D01*
X13913096Y-14552190D02*
X13932143Y-14561714D01*
X13932143Y-14561714D02*
X13941667Y-14571238D01*
X13941667Y-14571238D02*
X13951191Y-14590286D01*
X13951191Y-14590286D02*
X13951191Y-14647428D01*
X13951191Y-14647428D02*
X13941667Y-14666476D01*
X13941667Y-14666476D02*
X13932143Y-14676000D01*
X13932143Y-14676000D02*
X13913096Y-14685524D01*
X13913096Y-14685524D02*
X13884524Y-14685524D01*
X14008334Y-14552190D02*
X14084524Y-14552190D01*
X14036905Y-14485524D02*
X14036905Y-14656952D01*
X14036905Y-14656952D02*
X14046429Y-14676000D01*
X14046429Y-14676000D02*
X14065477Y-14685524D01*
X14065477Y-14685524D02*
X14084524Y-14685524D01*
X14303572Y-14552190D02*
X14303572Y-14752190D01*
X14303572Y-14561714D02*
X14322619Y-14552190D01*
X14322619Y-14552190D02*
X14360715Y-14552190D01*
X14360715Y-14552190D02*
X14379762Y-14561714D01*
X14379762Y-14561714D02*
X14389286Y-14571238D01*
X14389286Y-14571238D02*
X14398810Y-14590286D01*
X14398810Y-14590286D02*
X14398810Y-14647428D01*
X14398810Y-14647428D02*
X14389286Y-14666476D01*
X14389286Y-14666476D02*
X14379762Y-14676000D01*
X14379762Y-14676000D02*
X14360715Y-14685524D01*
X14360715Y-14685524D02*
X14322619Y-14685524D01*
X14322619Y-14685524D02*
X14303572Y-14676000D01*
X14513096Y-14685524D02*
X14494048Y-14676000D01*
X14494048Y-14676000D02*
X14484524Y-14656952D01*
X14484524Y-14656952D02*
X14484524Y-14485524D01*
X14675000Y-14685524D02*
X14675000Y-14580762D01*
X14675000Y-14580762D02*
X14665477Y-14561714D01*
X14665477Y-14561714D02*
X14646429Y-14552190D01*
X14646429Y-14552190D02*
X14608334Y-14552190D01*
X14608334Y-14552190D02*
X14589286Y-14561714D01*
X14675000Y-14676000D02*
X14655953Y-14685524D01*
X14655953Y-14685524D02*
X14608334Y-14685524D01*
X14608334Y-14685524D02*
X14589286Y-14676000D01*
X14589286Y-14676000D02*
X14579762Y-14656952D01*
X14579762Y-14656952D02*
X14579762Y-14637905D01*
X14579762Y-14637905D02*
X14589286Y-14618857D01*
X14589286Y-14618857D02*
X14608334Y-14609333D01*
X14608334Y-14609333D02*
X14655953Y-14609333D01*
X14655953Y-14609333D02*
X14675000Y-14599809D01*
X14741667Y-14552190D02*
X14817858Y-14552190D01*
X14770239Y-14485524D02*
X14770239Y-14656952D01*
X14770239Y-14656952D02*
X14779762Y-14676000D01*
X14779762Y-14676000D02*
X14798810Y-14685524D01*
X14798810Y-14685524D02*
X14817858Y-14685524D01*
X14960715Y-14676000D02*
X14941667Y-14685524D01*
X14941667Y-14685524D02*
X14903572Y-14685524D01*
X14903572Y-14685524D02*
X14884524Y-14676000D01*
X14884524Y-14676000D02*
X14875000Y-14656952D01*
X14875000Y-14656952D02*
X14875000Y-14580762D01*
X14875000Y-14580762D02*
X14884524Y-14561714D01*
X14884524Y-14561714D02*
X14903572Y-14552190D01*
X14903572Y-14552190D02*
X14941667Y-14552190D01*
X14941667Y-14552190D02*
X14960715Y-14561714D01*
X14960715Y-14561714D02*
X14970239Y-14580762D01*
X14970239Y-14580762D02*
X14970239Y-14599809D01*
X14970239Y-14599809D02*
X14875000Y-14618857D01*
X15141667Y-14685524D02*
X15141667Y-14485524D01*
X15141667Y-14676000D02*
X15122620Y-14685524D01*
X15122620Y-14685524D02*
X15084524Y-14685524D01*
X15084524Y-14685524D02*
X15065477Y-14676000D01*
X15065477Y-14676000D02*
X15055953Y-14666476D01*
X15055953Y-14666476D02*
X15046429Y-14647428D01*
X15046429Y-14647428D02*
X15046429Y-14590286D01*
X15046429Y-14590286D02*
X15055953Y-14571238D01*
X15055953Y-14571238D02*
X15065477Y-14561714D01*
X15065477Y-14561714D02*
X15084524Y-14552190D01*
X15084524Y-14552190D02*
X15122620Y-14552190D01*
X15122620Y-14552190D02*
X15141667Y-14561714D01*
X15217858Y-14761714D02*
X15227381Y-14752190D01*
X15227381Y-14752190D02*
X15246429Y-14723619D01*
X15246429Y-14723619D02*
X15255953Y-14704571D01*
X15255953Y-14704571D02*
X15265477Y-14676000D01*
X15265477Y-14676000D02*
X15275000Y-14628381D01*
X15275000Y-14628381D02*
X15275000Y-14590286D01*
X15275000Y-14590286D02*
X15265477Y-14542667D01*
X15265477Y-14542667D02*
X15255953Y-14514095D01*
X15255953Y-14514095D02*
X15246429Y-14495048D01*
X15246429Y-14495048D02*
X15227381Y-14466476D01*
X15227381Y-14466476D02*
X15217858Y-14456952D01*
M02*
